<svg width="269.64" height="88.76" version="1.1" viewBox="0 0 269.64 88.76" xmlns="http://www.w3.org/2000/svg">
	<path d="m115.39 46.71c0 12.77-9.99 22.18-22.25 22.18s-22.25-9.41-22.25-22.18c0-12.86 9.99-22.18 22.25-22.18s22.25 9.32 22.25 22.18zm-9.74 0c0-7.98-5.79-13.44-12.51-13.44s-12.51 5.46-12.51 13.44c0 7.9 5.79 13.44 12.51 13.44s12.51-5.55 12.51-13.44z" fill="#ea4335"/>
	<path d="m163.39 46.71c0 12.77-9.99 22.18-22.25 22.18s-22.25-9.41-22.25-22.18c0-12.85 9.99-22.18 22.25-22.18s22.25 9.32 22.25 22.18zm-9.74 0c0-7.98-5.79-13.44-12.51-13.44s-12.51 5.46-12.51 13.44c0 7.9 5.79 13.44 12.51 13.44s12.51-5.55 12.51-13.44z" fill="#fbbc05"/>
	<path d="m209.39 25.87v39.82c0 16.38-9.66 23.07-21.08 23.07-10.75 0-17.22-7.19-19.66-13.07l8.48-3.53c1.51 3.61 5.21 7.87 11.17 7.87 7.31 0 11.84-4.51 11.84-13v-3.19h-.34c-2.18 2.69-6.38 5.04-11.68 5.04-11.09 0-21.25-9.66-21.25-22.09 0-12.52 10.16-22.26 21.25-22.26 5.29 0 9.49 2.35 11.68 4.96h.34v-3.61h9.25zm-8.56 20.92c0-7.81-5.21-13.52-11.84-13.52-6.72 0-12.35 5.71-12.35 13.52 0 7.73 5.63 13.36 12.35 13.36 6.63 0 11.84-5.63 11.84-13.36z" fill="#4285f4"/>
	<path d="m224.64 2.53v65h-9.5v-65z" fill="#34a853"/>
	<path d="m261.66 54.01 7.56 5.04c-2.44 3.61-8.32 9.83-18.48 9.83-12.6 0-22.01-9.74-22.01-22.18 0-13.19 9.49-22.18 20.92-22.18 11.51 0 17.14 9.16 18.98 14.11l1.01 2.52-29.65 12.28c2.27 4.45 5.8 6.72 10.75 6.72 4.96 0 8.4-2.44 10.92-6.14zm-23.27-7.98 19.82-8.23c-1.09-2.77-4.37-4.7-8.23-4.7-4.95 0-11.84 4.37-11.59 12.93z" fill="#ea4335"/>
	<path d="m34.93 40.94v-9.41h31.71c.31 1.64.47 3.58.47 5.68 0 7.06-1.93 15.79-8.15 22.01-6.05 6.3-13.78 9.66-24.02 9.66-18.98 0-34.94-15.46-34.94-34.44s15.96-34.44 34.94-34.44c10.5 0 17.98 4.12 23.6 9.49l-6.64 6.64c-4.03-3.78-9.49-6.72-16.97-6.72-13.86 0-24.7 11.17-24.7 25.03s10.84 25.03 24.7 25.03c8.99 0 14.11-3.61 17.39-6.89 2.66-2.66 4.41-6.46 5.1-11.65z" fill="#4285f4"/>
	<g fill="#4285f4" stroke-width=".34038">
		<path d="m216.78 87.572v-11.465h3.748q1.8661 0 2.8032.77165.94488.77166.94488 2.2835 0 .80315-.45669 1.4252-.45669.61417-1.2441.95276.92914.25984 1.4646.99213.54331.72441.54331 1.7323 0 1.5433-1 2.4252-1 .88189-2.8268.88189zm1.5118-5.3622v4.126h2.4961q1.0551 0 1.6614-.54331.61417-.55118.61417-1.5118 0-2.0709-2.252-2.0709zm0-1.2126h2.2835q.99213 0 1.5827-.49606.59843-.49606.59843-1.3465 0-.94488-.55119-1.3701-.55118-.43307-1.6772-.43307h-2.2362z"/>
		<path d="m226.21 83.233q0-1.252.48819-2.252.49606-1 1.3701-1.5433.88189-.54331 2.0079-.54331 1.7402 0 2.811 1.2047 1.0787 1.2047 1.0787 3.2047v.10236q0 1.2441-.48031 2.2362-.47244.98425-1.3622 1.5354-.88189.55118-2.0315.55118-1.7323 0-2.811-1.2047-1.0709-1.2047-1.0709-3.189zm1.4646.17323q0 1.4173.65354 2.2756.66142.85827 1.7638.85827 1.1102 0 1.7638-.86614.65354-.87402.65354-2.4409 0-1.4016-.66929-2.2677-.66142-.87402-1.7638-.87402-1.0787 0-1.7402.85827-.66142.85827-.66142 2.4567z"/>
		<path d="m235.41 83.233q0-1.252.48819-2.252.49606-1 1.3701-1.5433.88189-.54331 2.0079-.54331 1.7402 0 2.811 1.2047 1.0787 1.2047 1.0787 3.2047v.10236q0 1.2441-.48031 2.2362-.47244.98425-1.3622 1.5354-.88189.55118-2.0315.55118-1.7323 0-2.811-1.2047-1.0709-1.2047-1.0709-3.189zm1.4646.17323q0 1.4173.65354 2.2756.66142.85827 1.7638.85827 1.1102 0 1.7638-.86614.65354-.87402.65354-2.4409 0-1.4016-.66929-2.2677-.66142-.87402-1.7638-.87402-1.0787 0-1.7402.85827-.66142.85827-.66142 2.4567z"/>
		<path d="m247.37 83.627-.91339.95276v2.9921h-1.4567v-12.094h1.4567v7.315l.77953-.93701 2.6536-2.8032h1.7716l-3.315 3.5591 3.7008 4.9606h-1.7087z"/>
		<path d="m258.14 85.312q0-.59055-.44882-.91339-.44095-.33071-1.5512-.56693-1.1024-.23622-1.7559-.56693-.64567-.33071-.96063-.7874-.30709-.45669-.30709-1.0866 0-1.0472.88189-1.7717.88976-.72441 2.2677-.72441 1.4488 0 2.3465.74803.90551.74803.90551 1.9134h-1.4646q0-.59843-.51181-1.0315-.50394-.43307-1.2756-.43307-.79528 0-1.2441.34646t-.44882.90551q0 .52756.41733.79528.41732.26772 1.5039.51181 1.0945.2441 1.7717.58268t1 .8189q.33071.47244.33071 1.1575 0 1.1417-.91339 1.8346-.91338.68504-2.3701.68504-1.0236 0-1.811-.3622-.78741-.3622-1.2362-1.0079-.44094-.65354-.44094-1.4094h1.4567q.0394.73228.58268 1.1654.55118.4252 1.4488.4252.82677 0 1.3228-.33071.50394-.33858.50394-.89764z"/>
	</g>
</svg>
