<?xml version="1.0" encoding="utf-8"?>
<svg xmlns="http://www.w3.org/2000/svg" viewBox="0 0 2737.9 3169">
  <path fill="#0F9D58" d="M2737.9,1368.4C2737.9,612.7,2124.1,0,1368.4,0S0,612.7,0,1368.4c0,715.9,652.5,1296.4,1368.4,1296.4V3169 C2199.9,2747.3,2737.9,2068.7,2737.9,1368.4z"/>
  <linearGradient id="a" gradientUnits="userSpaceOnUse" x1="1385.269" y1="1856.731" x2="2323.1304" y2="918.8698" gradientTransform="matrix(1 0 0 -1 0 3170)">
    <stop offset="0" stop-color="#263238"/>
    <stop offset="1" stop-opacity="0"/>
  </linearGradient>
  <path opacity=".2" fill="url(#a)" d="M2052.6,1008.3l-396.1,396.1l-396.1-396.1l-576.2,576.2 L1919,2819.3c415.6-328.3,697-732.4,787.3-1157.3L2052.6,1008.3z"/>
  <path fill="#EEE" d="M1476.5,1008.3v576.2h324.1v324.1c141.3,0,252.1-180.1,252.1-360.1v-540.2H1476.5z"/>
  <path fill="#EEE" d="M684.2,1008.3v576.2h324.1v324.1c141.3,0,252.1-180.1,252.1-360.1v-540.2H684.2z"/>
  <path opacity=".4" fill="#FFF" d="M684.2,1008.3h576.2v18H684.2V1008.3z M1476.5,1008.3h576.2v18 h-576.2V1008.3z"/>
  <path opacity=".2" fill="#263238" d="M1800.6,1908.6v18c141.3,0,252.1-180.1,252.1-360.1v-18 C2052.6,1728.5,1941.9,1908.6,1800.6,1908.6z M1800.6,1584.5h-324.1v18h324.1V1584.5z M1008.3,1908.6l17.1,17.1 c133.1-13.7,235-186.5,235-359.2v-18C1260.4,1728.5,1149.7,1908.6,1008.3,1908.6z M1008.3,1584.5H684.2v18h324.1L1008.3,1584.5 L1008.3,1584.5z"/>
  <path opacity=".2" fill="#FFF" d="M1368.4,18c755.7,0,1368.4,612.7,1368.4,1368.4h0.7 c0-5.9,0.4-12.1,0.4-18h-1.1C2736.8,612.7,2124.1,0,1368.4,0S0,612.7,0,1368.4c0,2.9,0.2,5.6,0.2,8.5C5.4,625.5,615.8,18,1368.4,18 z"/>
  <path opacity=".2" fill="#263238" d="M1368.4,2664.8v-18C655.2,2646.8,5.4,2071,0.2,1358.9 c0,3.2-0.2,6.3-0.2,9.5C0,2084.3,652.5,2664.8,1368.4,2664.8z M2736.8,1368.4c-9.2,693.8-544.1,1364.5-1368.4,1782.5v18 C2199.9,2747.3,2736.8,2068.7,2736.8,1368.4z"/>
</svg>
