<?xml version="1.0" encoding="UTF-8" standalone="no"?>
<!-- Generator: Adobe Illustrator 16.0.0, SVG Export Plug-In . SVG Version: 6.00 Build 0)  -->

<svg
   xmlns:dc="http://purl.org/dc/elements/1.1/"
   xmlns:cc="http://creativecommons.org/ns#"
   xmlns:rdf="http://www.w3.org/1999/02/22-rdf-syntax-ns#"
   xmlns:svg="http://www.w3.org/2000/svg"
   xmlns="http://www.w3.org/2000/svg"
   xmlns:sodipodi="http://sodipodi.sourceforge.net/DTD/sodipodi-0.dtd"
   xmlns:inkscape="http://www.inkscape.org/namespaces/inkscape"
   version="1.1"
   id="Layer_2"
   x="0px"
   y="0px"
   width="561.79999"
   height="129.16048"
   viewBox="0 0 561.79998 129.16047"
   enable-background="new 0 0 841.89 595.28"
   xml:space="preserve"
   inkscape:version="0.48.2 r9819"
   sodipodi:docname="Google Play logo.svg"><metadata
   id="metadata55"><rdf:RDF><cc:Work
       rdf:about=""><dc:format>image/svg+xml</dc:format><dc:type
         rdf:resource="http://purl.org/dc/dcmitype/StillImage" /></cc:Work></rdf:RDF></metadata><defs
   id="defs53" /><sodipodi:namedview
   pagecolor="#ffffff"
   bordercolor="#666666"
   borderopacity="1"
   objecttolerance="10"
   gridtolerance="10"
   guidetolerance="10"
   inkscape:pageopacity="0"
   inkscape:pageshadow="2"
   inkscape:window-width="1600"
   inkscape:window-height="837"
   id="namedview51"
   showgrid="false"
   fit-margin-top="0"
   fit-margin-left="0"
   fit-margin-right="0"
   fit-margin-bottom="0"
   inkscape:zoom="0.39645207"
   inkscape:cx="296.25001"
   inkscape:cy="38.121103"
   inkscape:window-x="-8"
   inkscape:window-y="-8"
   inkscape:window-maximized="1"
   inkscape:current-layer="Layer_2" />
<rect
   x="468.883"
   y="33.809361"
   width="4.75"
   height="57.875"
   id="rect3"
   style="fill:#808285" />
<path
   d="m 515.633,84.809358 v -23.25 c 0,0 -0.333,-12.629 -16.5,-12.629 -16.167,0 -16.625,11.879 -16.625,11.879 l 5.125,-0.016 c 0,0 -0.25,-8.109 11.375,-8.109 11.625,0 11.5,9.375 11.5,9.375 v 5.609 l -9.5,0.016 c -13.563,0 -20.25,5.188 -20.25,12.5 0,7.312 4.063,12.5 14,12.5 9.937,0 15.5,-7 15.5,-7 0,2.875 1.5,6 1.5,6 h 5.5 c 0,0 -1.625,-3.562 -1.625,-6.875 z m -5.125,-8.312 c 0,8.438 -10.188,12.125 -15.313,12.125 -5.125,0 -9.375,-2.438 -9.375,-8.063 0,-5.625 6.688,-9.313 14.813,-9.313 h 9.875 v 5.251 z"
   id="path5"
   inkscape:connector-curvature="0"
   style="fill:#808285" />
<path
   d="m 520.55,49.934358 h 5 l 15.5,35.584 15.084,-35.584 h 5.666 c 0,0 -19.749,46.458 -21.583,50.833002 -1.834,4.375 -6.209,8.417 -11.583,8.417 -2.418,0 -4.834,-1.417 -4.834,-1.417 l 1.334,-3.75 c 0,0 1.209,0.667 3.583,0.667 2.374,0 6.5,-5.500002 6.5,-5.500002 l 3,-7.167 -17.667,-42.083 z"
   id="path7"
   inkscape:connector-curvature="0"
   style="fill:#808285" />
<path
   d="m 443.934,48.930358 c -8.874,0 -14.819,7.28 -14.984,7.484 v -6.48 h -0.016 -4.734 v 57.750002 h 4.734 0.016 V 84.834358 c 0.163,0.272 4.798,7.85 15.109,7.85 10.5,0 18.625,-6.75 18.625,-22.211 0,-15.461 -9.75,-21.543 -18.75,-21.543 z m -0.75,39.879 c -8.616,0 -14.069,-8.829 -14.234,-9.1 v -18.047 c 0.166,-0.225 6.472,-8.729 14.859,-8.729 7.625,0 14,7.75 14,17.873 0,10.123 -5.875,18.003 -14.625,18.003 z"
   id="path9"
   inkscape:connector-curvature="0"
   style="fill:#808285" />
<linearGradient
   id="SVGID_1_"
   gradientUnits="userSpaceOnUse"
   x1="226.8584"
   y1="284.50681"
   x2="210.5396"
   y2="252.47929"
   gradientTransform="translate(-124.695,-206.60064)">
	<stop
   offset="0"
   style="stop-color:#FCD08F"
   id="stop12" />
	<stop
   offset="1"
   style="stop-color:#F79673"
   id="stop14" />
</linearGradient>
<path
   d="m 89.178,84.522358 c 15.287,-8.367 26.962,-14.758 28.024,-15.34 3.168,-1.734 6.487,-6.159 0,-9.696 -2.085,-1.139 -13.446,-7.334 -28.042,-15.297 l -20.075,20.229 20.093,20.104 z"
   id="path16"
   inkscape:connector-curvature="0"
   style="fill:url(#SVGID_1_)" />
<linearGradient
   id="SVGID_2_"
   gradientUnits="userSpaceOnUse"
   x1="203.1299"
   y1="279.73831"
   x2="140.9948"
   y2="346.37"
   gradientTransform="translate(-124.695,-206.60064)">
	<stop
   offset="0"
   style="stop-color:#E74047"
   id="stop19" />
	<stop
   offset="1"
   style="stop-color:#7F50A0"
   id="stop21" />
</linearGradient>
<path
   d="M 69.084,64.418358 4.876,129.11636 c 1.45,0.184 3.194,-0.2 5.2,-1.298 4.153,-2.273 48.753,-26.686 79.102,-43.298002 l -20.094,-20.102 z"
   id="path23"
   inkscape:connector-curvature="0"
   style="fill:url(#SVGID_2_)" />
<linearGradient
   id="SVGID_3_"
   gradientUnits="userSpaceOnUse"
   x1="203.4604"
   y1="261.66989"
   x2="140.33949"
   y2="196.3062"
   gradientTransform="translate(-124.695,-206.60064)">
	<stop
   offset="0"
   style="stop-color:#E6FFAB"
   id="stop26" />
	<stop
   offset="1"
   style="stop-color:#47BEBC"
   id="stop28" />
</linearGradient>
<path
   d="m 69.084,64.418358 20.075,-20.229 c 0,0 -74.616,-40.7089996 -79.083,-43.1459996 C 8.359,0.10635843 6.487,-0.22064157 4.83,0.14835843 L 69.084,64.418358 z"
   id="path30"
   inkscape:connector-curvature="0"
   style="fill:url(#SVGID_3_)" />
<linearGradient
   id="SVGID_4_"
   gradientUnits="userSpaceOnUse"
   x1="159.23779"
   y1="335.7168"
   x2="159.23779"
   y2="206.7505"
   gradientTransform="translate(-124.695,-206.60064)">
	<stop
   offset="0"
   style="stop-color:#84E9DB"
   id="stop33" />
	<stop
   offset="1"
   style="stop-color:#197491"
   id="stop35" />
</linearGradient>
<path
   d="M 69.084,64.418358 4.829,0.14935843 C 2.175,0.74135843 0,3.0383584 0,7.6553584 0,15.155358 0,115.10836 0,121.40536 c 0,4.348 1.711,7.406 4.875,7.711 L 69.084,64.418358 z"
   id="path37"
   inkscape:connector-curvature="0"
   style="fill:url(#SVGID_4_)" />
<path
   d="m 201.147,37.895358 c 0,0 -6.938,-7.057 -24.286,-7.057 -21.121,0 -33.395,16.221 -33.395,31.582 0,13.426 9.281,30.38 32.354,30.38 11.927,0 25.327,-4.388 25.327,-4.388 0,0 0,-5.293 0,-10.415 0,-5.119 3.47,-6.885 3.47,-6.885 h -18.475 l -6.506,3.615 c 3.492,-0.882 12.751,-0.774 12.751,-0.774 v 12.908 c 0,0 -4.099,2.323 -10.321,2.323 -18,0 -29.665,-15.791 -29.665,-30.206 0,-17.598 12.577,-25.043 23.505,-25.043 10.93,0 17.088,8.09 17.088,8.09 l -1.996,3.271 3.21,-0.86 6.939,-6.541 z"
   id="path39"
   inkscape:connector-curvature="0"
   style="fill:#808285" />
<path
   d="m 230.51,49.096358 c -12.38,0 -22.468,8.987 -22.468,22.103 0,9.446 7.612,20.818 21.092,20.818 13.482,0 22.93,-8.986 22.93,-21.643 0,-12.657 -9.172,-21.278 -21.554,-21.278 z m 0.917,40.169 c -10.217,0 -15.041,-15.773 -15.041,-23.753 0,-7.979 5.412,-13.665 11.647,-13.665 8.896,0 15.041,10.497 15.041,22.745 10e-4,4.218 -1.429,14.673 -11.647,14.673 z"
   id="path41"
   inkscape:connector-curvature="0"
   style="fill:#808285" />
<path
   d="m 278.686,49.118358 c -12.375,0 -22.458,8.983 -22.458,22.092 0,9.441 7.608,20.808 21.083,20.808 13.476,0 22.917,-8.981 22.917,-21.632 0,-12.651 -9.166,-21.268 -21.542,-21.268 z m 0.916,40.149 c -10.211,0 -15.033,-15.767 -15.033,-23.742 0,-7.974 5.41,-13.657 11.642,-13.657 8.893,0 15.034,10.492 15.034,22.732 0,4.217 -1.429,14.667 -11.643,14.667 z"
   id="path43"
   inkscape:connector-curvature="0"
   style="fill:#808285" />
<path
   d="m 335.779,88.975358 c -4.419,-3.05 -5.284,-4.509 -5.284,-5.83 0,-1.32 0.047,-2.39 3.189,-5.373 3.142,-2.984 6.014,-6.104 6.014,-11.753 0,-8.382 -5.648,-12.117 -5.648,-12.117 l 5.374,-0.181 5.374,-3.189 c 0,0 -10.203,0 -20.951,0 -10.75,0 -18.858,8.291 -18.858,17.219 0,6.285 5.329,13.8 15.852,13.8 1.093,0 1.822,-0.228 1.822,-0.228 0,0 -0.637,1.391 -0.637,3.235 0,3.007 2.595,5.694 2.595,5.694 0,0 -24.278,0.022 -24.278,15.577002 0,9.404 10.613,12.936 19.313,12.936 8.701,0 23.595,-4.69 23.595,-16.672 -0.002,-5.715002 -3.051,-10.065002 -7.472,-13.118002 z m -11.524,-10.157 c -6.354,0 -11.41,-9.496 -11.41,-15.235 0,-5.74 2.869,-9.84 7.925,-9.84 5.058,0 11.068,5.808 11.068,16.398 0,3.69 -1.227,8.677 -7.583,8.677 z m -0.477,36.075002 c -2.938,0 -15.441,-1.161 -15.441,-11.067 0,-9.906002 14.414,-10.830002 16.088,-10.830002 1.676,0 3.109,0.24 3.109,0.24 4.443,3.928 9.361,5.876 9.361,12.023002 0,8.816 -10.181,9.634 -13.117,9.634 z"
   id="path45"
   inkscape:connector-curvature="0"
   style="fill:#808285" />
<path
   d="m 343.725,31.004358 5.993,-3.27 h 13.148 c -3.064,1.635 -4.212,2.93 -4.291,10.559 -0.079,7.627 -0.478,46.482 -0.478,46.482 0,2.908 2.529,3.696 4.808,3.696 2.074,0 3.025,0.403 3.025,0.403 l -2.791,1.941 h -15.942 c 0,0 2.289,-2.046 2.317,-4.087 l 0.818,-55.708 -6.607,-0.016 z"
   id="path47"
   inkscape:connector-curvature="0"
   style="fill:#808285" />
<path
   d="m 401.868,60.253358 c 0,0 -2.211,-11.323 -15.652,-11.323 -13.441,0 -20.44,10.588 -20.44,20.991 0,10.402 6.169,22.096 21.544,22.096 10.772,0 15.652,-8.01 15.652,-8.01 0,0 -5.156,3.039 -10.865,3.039 -8.56,0 -18.505,-9.024 -18.505,-22.28 0,-8.932 6.228,-12.522 10.129,-12.522 7.826,0 9.251,7.044 8.563,8.286 -0.691,1.243 -18.415,8.471 -18.415,8.471 l 7.089,-0.369 20.9,-8.379 z"
   id="path49"
   inkscape:connector-curvature="0"
   style="fill:#808285" />
</svg>