<?xml version="1.0" encoding="utf-8"?>
<svg id="svg9804" width="400" height="113.01448059082" viewBox="0 0 400 113.01448059082" xmlns="http://www.w3.org/2000/svg">
  <g id="layer1" transform="matrix(0.994322328538038,0,0,0.994322328538038,-386.073129593649,-331.313887033803)">
    <g transform="matrix(5.31070251662659,0,0,5.31070251662659,-785.678882254803,-11.6796108138046)" style="clip-rule:nonzero" clip-path="url(#clip2)" id="g9676">
      <g clip-path="url(#clip3)" id="use9674" transform="translate(221,59)">
        <path id="path9862" d="m 71.40625,15.675781 h 4.019531 v 1.625 H 71.40625 v 4.070313 h -1.609375 v -4.070313 h -4.019531 v -1.625 h 4.019531 v -4.070312 h 1.609375 z m 0,0" style="fill:#757575;fill-opacity:1;fill-rule:nonzero;stroke:none"/>
        <g style="clip-rule:nonzero" id="g9866" clip-path="url(#clip4)">
          <path id="path9864" d="m 0.433594,14.332031 c 0,-4.425781 3.660156,-8.011718 8.035156,-8.011718 2.410156,0 4.128906,0.960937 5.425781,2.214843 l -1.539062,1.539063 C 11.4375,9.1875 10.1875,8.503906 8.46875,8.503906 c -3.183594,0 -5.667969,2.59375 -5.667969,5.8125 0,3.21875 2.484375,5.8125 5.667969,5.8125 2.0625,0 3.238281,-0.835937 3.992188,-1.601562 0.621093,-0.625 1.027343,-1.523438 1.175781,-2.746094 H 8.46875 V 13.597656 H 15.75 c 0.074219,0.398438 0.121094,0.855469 0.121094,1.375 0,1.648438 -0.4375,3.675782 -1.871094,5.113282 -1.402344,1.464843 -3.179687,2.242187 -5.53125,2.242187 -4.375,0 -8.035156,-3.585937 -8.035156,-7.996094 z m 0,0" style="fill:#4285f4;fill-opacity:1;fill-rule:nonzero;stroke:none"/>
        </g>
        <path id="path9868" d="m 21.734375,12.027344 c -2.820312,0 -5.109375,2.167969 -5.109375,5.15625 0,2.976562 2.289063,5.160156 5.109375,5.160156 2.820313,0 5.109375,-2.183594 5.109375,-5.160156 0,-2.988281 -2.289062,-5.15625 -5.109375,-5.15625 z m 0,8.269531 c -1.539062,0 -2.878906,-1.28125 -2.878906,-3.125 0,-1.863281 1.324219,-3.128906 2.878906,-3.128906 1.539063,0 2.878906,1.265625 2.878906,3.128906 0,1.84375 -1.339843,3.125 -2.878906,3.125 z m 0,0" style="fill:#ea4335;fill-opacity:1;fill-rule:nonzero;stroke:none"/>
        <path id="path9870" d="m 32.890625,12.027344 c -2.820312,0 -5.109375,2.167969 -5.109375,5.15625 0,2.976562 2.289063,5.160156 5.109375,5.160156 2.820313,0 5.109375,-2.183594 5.109375,-5.160156 0,-2.988281 -2.289062,-5.15625 -5.109375,-5.15625 z m 0,8.269531 c -1.539062,0 -2.878906,-1.28125 -2.878906,-3.125 0,-1.863281 1.324219,-3.128906 2.878906,-3.128906 1.554688,0 2.878906,1.265625 2.878906,3.128906 0,1.84375 -1.339843,3.125 -2.878906,3.125 z m 0,0" style="fill:#fbbc03;fill-opacity:1;fill-rule:nonzero;stroke:none"/>
        <path id="path9872" d="m 46.578125,12.332031 v 0.839844 h -0.074219 c -0.496093,-0.609375 -1.460937,-1.160156 -2.683593,-1.160156 -2.546875,0 -4.882813,2.257812 -4.882813,5.171875 0,2.886719 2.335938,5.144531 4.882813,5.144531 1.222656,0 2.1875,-0.550781 2.683593,-1.175781 h 0.074219 v 0.75 c 0,1.964844 -1.039062,3.019531 -2.710937,3.019531 -1.375,0 -2.21875,-0.992187 -2.5625,-1.832031 l -1.945313,0.824219 c 0.554688,1.375 2.050781,3.050781 4.523438,3.050781 2.621093,0 4.835937,-1.554688 4.835937,-5.371094 v -9.261719 z m -2.5625,7.964844 c -1.535156,0 -2.832031,-1.3125 -2.832031,-3.113281 0,-1.8125 1.296875,-3.140625 2.832031,-3.140625 1.523438,0 2.714844,1.328125 2.714844,3.140625 C 46.746094,19 45.539063,20.296875 44.015625,20.296875 Z m 0,0" style="fill:#4285f4;fill-opacity:1;fill-rule:nonzero;stroke:none"/>
        <g style="clip-rule:nonzero" id="g9876" clip-path="url(#clip5)">
          <path id="path9874" d="M 52.488281,22.023438 H 50.257813 V 6.871094 h 2.230468 z m 0,0" style="fill:#34a853;fill-opacity:1;fill-rule:nonzero;stroke:none"/>
        </g>
        <path id="path9878" d="m 58.625,20.296875 c -1.144531,0 -1.945312,-0.53125 -2.472656,-1.554687 l 6.816406,-2.855469 -0.226562,-0.578125 c -0.421875,-1.160156 -1.71875,-3.28125 -4.359375,-3.28125 -2.621094,0 -4.808594,2.089844 -4.808594,5.15625 0,2.886719 2.15625,5.160156 5.050781,5.160156 2.335938,0 3.679688,-1.449219 4.25,-2.289062 l -1.730469,-1.175782 c -0.589843,0.855469 -1.375,1.417969 -2.519531,1.417969 z m -0.164062,-6.285156 c 0.886718,0 1.640625,0.441406 1.882812,1.097656 l -4.554687,1.90625 c -0.058594,-1.980469 1.523437,-3.003906 2.671875,-3.003906 z m 0,0" style="fill:#ea4335;fill-opacity:1;fill-rule:nonzero;stroke:none"/>
      </g>
    </g>
  </g>
</svg>