<?xml version="1.0" encoding="utf-8"?>
<!-- Generator: Adobe Illustrator 23.0.1, SVG Export Plug-In . SVG Version: 6.00 Build 0)  -->
<svg version="1.1" id="Layer_1" xmlns="http://www.w3.org/2000/svg" xmlns:xlink="http://www.w3.org/1999/xlink" x="0px" y="0px"
	 viewBox="0 0 697.5 697.5" enable-background="new 0 0 697.5 697.5" xml:space="preserve">
<g id="Layer_1-2">
	<path fill="#FEFEFE" d="M348.6,697.5L348.6,697.5C156.1,697.5,0,541.5,0,348.9v0C0,156.4,156.1,0.4,348.6,0.4h0
		c192.5,0,348.6,156.1,348.6,348.6v0C697.2,541.5,541.1,697.5,348.6,697.5z"/>
	<path fill="#3DDC84" d="M348.9,697.5c-88.4-1-166.4-30-232.5-89C58,556.3,21.6,491.2,6.3,414.4c-3.4-17.6-5.4-35.5-5.8-53.5
		c-2.4-80.4,19.6-153.4,67.1-218C119.5,72.4,188.7,27.6,274.1,8.2c29.4-6.7,59.6-9.3,89.8-7.7c72.8,3.5,138.5,27.1,196.6,71.2
		c40.7,30.8,74,70.3,97.5,115.5c19,36.1,31.5,74.5,36.5,115c12,97.7-12,185.8-72.7,263.6c-7.1,8.9-14.6,17.5-22.5,25.7
		c-1.7,1.8-2.6,2.1-4.5,0.2c-17.2-17.4-34.5-34.7-51.9-51.9c-1.5-1.5-1.7-2.2-0.1-3.9c36.5-38.2,59.9-83.2,70.1-135
		c5-25.3,6.2-51.2,3.6-76.8c-5.2-52.7-23.9-100.1-57-141.4c-40.8-50.9-93.2-83.1-157.3-96.4c-21.2-4.5-42.8-6.2-64.4-5.1
		C265,84.9,203.1,112.9,153,165.9c-36.7,38.8-59.8,84.7-68.5,137.4c-12.8,77.3,4,147.9,51.8,210.2c41.1,53.6,95.5,87,162,99.9
		c61.3,11.8,119.8,3,175.3-25.7c2.6-1.4,4.1-1.2,6.2,1c17.4,17.6,34.9,35.1,52.4,52.4c2.2,2.2,2.3,3.1-0.5,4.8
		c-39.9,24.5-84.3,40.7-130.5,47.6C383.8,696.2,366.4,697.5,348.9,697.5z"/>
	<path fill="#3DDC84" d="M159.1,356.7c-0.6-13.9,0.3-27.8,2.8-41.5c6.5-37.3,24.3-71.8,50.9-98.8c27.5-28.2,60.5-46.8,99.2-53.9
		c62.2-11.5,117.6,3.6,164.7,45.8c32.8,29.4,52.9,66.3,59.6,109.9c8.8,56.6-5.5,107.3-41.5,151.9c-3.1,3.9-6.2,7.9-10.3,10.9
		c-3.3-3.2-213.8-213.4-221.2-221.2c-2.5-2.6-3.8-2.9-6.5-0.1c-31.2,31.4-62.4,62.7-93.8,93.9c-1,1.2-2,2.4-2.9,3.6L159.1,356.7z"/>
	<path fill="#3DDC84" d="M417,526.2c-13.9,5.4-28.4,9.1-43.1,11c-38.4,4.9-75-1.2-109.6-18.5c-32.4-16.2-58-39.8-77.2-70.5
		c-1.6-2.6-1.9-4.1,0.6-6.5c23.4-23.2,46.8-46.6,70-70c2-2.1,3.1-2.1,5.1,0c50.6,50.8,101.3,101.5,152,152.1
		C415.4,524.5,416,525.1,417,526.2z"/>
</g>
</svg>
