<?xml version="1.0" encoding="UTF-8"?>
<svg height="83.96" viewBox="0,0,132.292,22.2134" width="500" xmlns="http://www.w3.org/2000/svg">
 <metadata/>
 <g transform="translate(313 -407.61)">
  <path d="m-306.019 414.702c-3.44283 0-6.98298 2.75884-6.98298 7.58781 0 4.41463 3.11262 7.53281 6.98298 7.53281 3.19479 0 4.61866-2.14438 4.61866-2.14438v.93473c0 .4418.41771.93473.93473.93473h2.30933v-14.5158h-3.24406v1.84197s-1.4358-2.17188-4.61866-2.17188zm.57787 2.96818c2.83418 0 4.32086 2.49255 4.32086 4.61855 0 2.36802-1.76515 4.61694-4.31485 4.61695-2.13139 0-4.26642-1.72619-4.26642-4.6482 0-2.63763 1.83733-4.5873 4.26041-4.5873z"/>
  <path d="m-293.648 429.548c-.49841 0-.93473-.35749-.93473-.93473v-13.5811h3.24406v1.79631c.73511-1.10493 2.17127-2.13064 4.37566-2.13064 3.60295 0 5.52148 2.87211 5.52148 5.55782v9.2923h-2.25435c-.59112 0-.98971-.49485-.98971-.98971v-7.5878c0-1.48869-.91211-3.29666-3.02157-3.29666-2.27617 0-3.63151 2.15114-3.63151 4.1764v7.69777z"/>
  <path d="m-271.984 414.702c-3.44282 0-6.98297 2.75884-6.98297 7.58781 0 4.41463 3.11262 7.53281 6.98297 7.53281 3.19479 0 4.61867-2.14438 4.61867-2.14438v.93473c0 .4418.41771.93473.93473.93473h2.30933v-21.7737h-3.24406v9.09985s-1.43581-2.17187-4.61867-2.17187zm.57788 2.96818c2.83418 0 4.32086 2.49255 4.32086 4.61855 0 2.36802-1.76516 4.61694-4.31485 4.61695-2.13139 0-4.26642-1.72619-4.26642-4.6482 0-2.63764 1.83732-4.5873 4.26041-4.5873z"/>
  <path d="m-259.613 429.548c-.49841 0-.93473-.35749-.93473-.93473v-13.5811h3.24406v2.4193c.55838-1.3553 1.76331-2.58425 3.90387-2.58425.59673 0 1.15467.10997 1.15467.10997v3.35402s-.69669-.27492-1.53956-.27492c-2.27617 0-3.51898 2.15114-3.51898 4.17641v7.31526z"/>
  <path d="m-232.56 429.548c-.49841 0-.93473-.35749-.93473-.93473v-13.5811h3.24406v14.5158z"/>
  <path d="m-220.739 414.702c-3.44283 0-6.98298 2.75884-6.98298 7.58781 0 4.41463 3.11262 7.53281 6.98298 7.53281 3.19478 0 4.61866-2.14438 4.61866-2.14438v.93473c0 .4418.41771.93473.93473.93473h2.30933v-21.7737h-3.24406v9.09985s-1.4358-2.17187-4.61866-2.17187zm.57787 2.96818c2.83418 0 4.32086 2.49255 4.32086 4.61855 0 2.36802-1.76515 4.61694-4.31485 4.61695-2.13139 0-4.26642-1.72619-4.26642-4.6482 0-2.63764 1.83733-4.5873 4.26041-4.5873z"/>
  <circle cx="-231.9" cy="409.76" r="2.15"/>
  <path d="m-243.689 414.697c-3.60557 0-7.56686 2.69138-7.56686 7.56686 0 4.44283 3.37409 7.55913 7.55902 7.55913 5.1575 0 7.67586-4.14609 7.67586-7.53099 0-4.15362-3.24284-7.595-7.66802-7.595zm.0118 3.0295c2.49335 0 4.35319 2.00957 4.35319 4.54649 0 2.58092-1.97431 4.57249-4.34578 4.57249-2.20142 0-4.34138-1.7915-4.34138-4.5291 0-2.78323 2.03532-4.58988 4.33397-4.58988z"/>
  <path d="m-199.625 408.874v20.674h-2.30933c-.49841 0-.93473-.35749-.93473-.93473v-16.4952h-1.70451c-.52841 0-.76977-.28655-.76977-.76977v-2.47429z"/>
  <path d="m-188.192 408.535c-4.60698 0-7.52862 3.45866-7.52862 7.9264v5.49841c0 4.12807 2.72681 7.85832 7.48352 7.85832 5.1669 0 7.52713-4.11752 7.52713-7.41845v-6.37815c0-3.57198-2.56989-7.48653-7.48203-7.48653zm-.037 3.19971c2.87889 0 4.27501 2.21627 4.27501 4.50676v5.93828c0 2.51166-1.64659 4.45467-4.26524 4.45467-2.79996 0-4.20231-2.22075-4.20231-4.45467v-5.93828c0-2.55469 1.60874-4.50676 4.19254-4.50676z"/>
 </g>
</svg>
