<?xml version="1.0" encoding="utf-8"?>
<!-- Generator: Adobe Illustrator 23.0.1, SVG Export Plug-In . SVG Version: 6.00 Build 0)  -->
<svg version="1.1" id="Livello_1" xmlns="http://www.w3.org/2000/svg" xmlns:xlink="http://www.w3.org/1999/xlink" x="0px" y="0px"
	 viewBox="0 0 1395.7 250" enable-background="new 0 0 1395.7 250" xml:space="preserve">
<g>
	<g id="Product_name">
		<path fill="#5F6368" d="M1124.4,140.4v58.8h-18.7V54h49.5c12.6,0,23.3,4.2,32.1,12.6c8.9,8.4,13.4,18.6,13.4,30.6
			c0,12.3-4.5,22.6-13.4,30.8c-8.7,8.3-19.3,12.4-32.1,12.4H1124.4z M1124.4,71.9v50.7h31.2c7.4,0,13.6-2.5,18.5-7.5
			c5-5,7.5-11,7.5-17.9c0-6.8-2.5-12.6-7.5-17.6c-4.9-5.1-11-7.7-18.5-7.7L1124.4,71.9L1124.4,71.9z"/>
		<path fill="#5F6368" d="M1249.5,96.6c13.8,0,24.7,3.7,32.7,11.1c8,7.4,12,17.5,12,30.3v61.3h-17.9v-13.8h-0.8
			c-7.7,11.4-18,17-30.8,17c-11,0-20.1-3.2-27.5-9.7c-7.4-6.5-11.1-14.6-11.1-24.3c0-10.3,3.9-18.5,11.7-24.5
			c7.8-6.1,18.2-9.1,31.1-9.1c11.1,0,20.2,2,27.4,6.1v-4.3c0-6.5-2.6-12-7.7-16.5c-5.1-4.5-11.2-6.8-18.1-6.8
			c-10.4,0-18.7,4.4-24.7,13.2l-16.4-10.3C1218.4,103.1,1231.8,96.6,1249.5,96.6z M1225.4,168.8c0,4.9,2.1,8.9,6.2,12.2
			c4.1,3.2,9,4.9,14.5,4.9c7.8,0,14.8-2.9,21-8.7c6.2-5.8,9.2-12.6,9.2-20.5c-5.8-4.6-13.9-6.9-24.3-6.9c-7.6,0-13.9,1.8-19,5.5
			C1227.9,158.9,1225.4,163.4,1225.4,168.8z"/>
		<path fill="#5F6368" d="M1395.7,99.9l-62.3,143.2h-19.3l23.1-50.1l-41-93.1h20.3l29.6,71.4h0.4l28.8-71.4L1395.7,99.9L1395.7,99.9
			z"/>
	</g>
	<g id="Google_logo">
		<path fill="#5F6368" d="M475.4,135.6v-22.5h75.2c0.8,4,1.2,8.7,1.2,13.8c0,16.8-4.6,37.7-19.4,52.5c-14.4,15-32.9,23.1-57.3,23.1
			c-45.3,0-83.4-36.9-83.4-82.2S429.7,38,475,38c25.1,0,42.9,9.8,56.3,22.7l-15.8,15.8c-9.6-9-22.7-16-40.5-16
			c-33.1,0-58.9,26.7-58.9,59.8S441.9,180,475,180c21.5,0,33.7-8.6,41.5-16.4c6.4-6.4,10.6-15.5,12.2-28L475.4,135.6z"/>
		<path fill="#5F6368" d="M666.3,149.5c0,30.5-23.9,52.9-53.1,52.9s-53.1-22.5-53.1-52.9c0-30.7,23.9-52.9,53.1-52.9
			C642.5,96.6,666.3,118.9,666.3,149.5z M643.1,149.5c0-19.1-13.8-32.1-29.9-32.1c-16,0-29.9,13-29.9,32.1
			c0,18.8,13.8,32.1,29.9,32.1C629.3,181.6,643.1,168.4,643.1,149.5z"/>
		<path fill="#5F6368" d="M782.2,149.5c0,30.5-23.9,52.9-53.1,52.9S676,180,676,149.5c0-30.7,23.9-52.9,53.1-52.9
			C758.4,96.6,782.2,118.9,782.2,149.5z M759,149.5c0-19.1-13.8-32.1-29.9-32.1c-16,0-29.9,13-29.9,32.1c0,18.8,13.8,32.1,29.9,32.1
			C745.1,181.6,759,168.4,759,149.5z"/>
		<path fill="#5F6368" d="M893.3,99.8v95c0,39.1-23.1,55.1-50.3,55.1c-25.7,0-41.1-17.2-46.9-31.3l20.2-8.4
			c3.6,8.6,12.4,18.8,26.7,18.8c17.4,0,28.3-10.8,28.3-31.1v-7.6h-0.8c-5.2,6.4-15.2,12-27.9,12c-26.5,0-50.7-23.1-50.7-52.7
			c0-29.9,24.3-53.1,50.7-53.1c12.6,0,22.7,5.6,27.9,11.8h0.8v-8.6L893.3,99.8L893.3,99.8z M872.9,149.7c0-18.6-12.4-32.3-28.3-32.3
			c-16,0-29.5,13.6-29.5,32.3c0,18.4,13.4,31.9,29.5,31.9C860.4,181.6,872.9,168.2,872.9,149.7z"/>
		<path fill="#5F6368" d="M932.7,44.2v155.1h-23.3V44.2H932.7z"/>
		<path fill="#5F6368" d="M1022.5,167l18,12c-5.8,8.6-19.8,23.5-44.1,23.5c-30.1,0-52.5-23.3-52.5-52.9c0-31.5,22.7-52.9,49.9-52.9
			c27.5,0,40.9,21.9,45.3,33.7l2.4,6l-70.8,29.3c5.4,10.6,13.8,16,25.7,16C1008.3,181.6,1016.5,175.8,1022.5,167z M967,147.9
			l47.3-19.7c-2.6-6.6-10.4-11.2-19.6-11.2C982.8,117.1,966.4,127.5,967,147.9z"/>
	</g>
	<g id="Product_icon">
		
			<linearGradient id="Google_Red_1_" gradientUnits="userSpaceOnUse" x1="166.3219" y1="132.1265" x2="270.0579" y2="94.3697" gradientTransform="matrix(1 0 0 -1 0 228.339)">
			<stop  offset="0.2" style="stop-color:#D93025"/>
			<stop  offset="0.6" style="stop-color:#EA4335"/>
		</linearGradient>
		<path id="Google_Red" fill="url(#Google_Red_1_)" d="M148.8,145.3l69.9-121.1l38.1,22c24.6,14.2,33,45.6,18.8,70.2l-39.4,68.2
			c-8.9,15.4-28.5,20.6-43.9,11.8l-35.3-20.4C146.3,169.7,142.6,156,148.8,145.3z"/>
		<path id="Google_Yellow" fill="#FDBD00" d="M141.4,61.2L54.5,211.8l38.1,22c24.6,14.2,56,5.8,70.2-18.8l56.4-97.7
			c8.9-15.4,3.6-35-11.8-43.9L172,53C161.3,46.8,147.6,50.5,141.4,61.2z"/>
		<path id="Google_Green" fill="#2DA94F" d="M218.7,24.2L191.8,8.6c-30.7-17.7-70-7.2-87.8,23.5l-50,86.6
			c-8.9,15.4-3.6,35,11.8,43.9l26.9,15.6c15.4,8.9,35,3.6,43.9-11.8L196.3,63l0,0c12.4-21.5,39.8-28.8,61.3-16.4"/>
		
			<linearGradient id="Google_Blue_1_" gradientUnits="userSpaceOnUse" x1="8.8362" y1="119.9087" x2="124.3986" y2="77.8474" gradientTransform="matrix(1 0 0 -1 0 228.339)">
			<stop  offset="0.2" style="stop-color:#4285F4"/>
			<stop  offset="0.8" style="stop-color:#1B74E8"/>
		</linearGradient>
		<path id="Google_Blue" fill="url(#Google_Blue_1_)" d="M111.8,57.5L82.1,40.4c-13.3-7.6-30.2-3.1-37.8,10.1L8.5,112.1
			c-17.6,30.3-7.1,69.1,23.3,86.7l22.6,13l27.5,15.8l11.9,6.9C72.7,220.3,66,192,78.9,169.7l9.2-15.9l33.8-58.4
			C129.6,82,125,65.1,111.8,57.5z"/>
	</g>
</g>
</svg>
