<?xml version="1.0" encoding="utf-8"?>
<!-- Generator: Adobe Illustrator 23.0.1, SVG Export Plug-In . SVG Version: 6.00 Build 0)  -->
<!DOCTYPE svg PUBLIC "-//W3C//DTD SVG 1.1//EN" "http://www.w3.org/Graphics/SVG/1.1/DTD/svg11.dtd" [
	<!ENTITY ns_extend "http://ns.adobe.com/Extensibility/1.0/">
	<!ENTITY ns_ai "http://ns.adobe.com/AdobeIllustrator/10.0/">
	<!ENTITY ns_graphs "http://ns.adobe.com/Graphs/1.0/">
	<!ENTITY ns_vars "http://ns.adobe.com/Variables/1.0/">
	<!ENTITY ns_imrep "http://ns.adobe.com/ImageReplacement/1.0/">
	<!ENTITY ns_sfw "http://ns.adobe.com/SaveForWeb/1.0/">
	<!ENTITY ns_custom "http://ns.adobe.com/GenericCustomNamespace/1.0/">
	<!ENTITY ns_adobe_xpath "http://ns.adobe.com/XPath/1.0/">
]>
<svg version="1.1" id="Layer_1" xmlns:x="&ns_extend;" xmlns:i="&ns_ai;" xmlns:graph="&ns_graphs;"
	 xmlns="http://www.w3.org/2000/svg" xmlns:xlink="http://www.w3.org/1999/xlink" x="0px" y="0px" viewBox="0 0 2134 350"
	 style="enable-background:new 0 0 2134 350;" xml:space="preserve">
<style type="text/css">
	.st0{opacity:0.54;}
	.st1{fill:#FBBB05;}
	.st2{fill:#E94335;}
	.st3{fill:#4285F4;}
	.st4{fill:#0F9D58;}
</style>
<metadata>
	<sfw  xmlns="&ns_sfw;">
		<slices></slices>
		<sliceSourceBounds  bottomLeftOrigin="true" height="350" width="2134" x="-420.8" y="49.4"></sliceSourceBounds>
	</sfw>
</metadata>
<g>
	<g class="st0">
		<path d="M1376.3,274.9V85.7h64.5c31.4,0,59.2,23.2,59.2,56.3s-27.7,56.3-59.2,56.3h-40.1v76.6H1376.3z M1441.3,175
			c18.2,0,33-14.8,33-33s-14.8-33-33-33h-40.7v66H1441.3z"/>
		<path d="M1540.9,145.4l-1.1,18h1.1c6.9-11.9,23.3-22.2,41-22.2c33,0,49.4,22.5,49.4,54.4v79.3H1607v-75.6
			c0-26.8-13.5-35.9-32-35.9c-21.1,0-34.1,20.1-34.1,39.9v71.6h-24.3V85.7h24.3V145.4z"/>
		<path d="M1784.4,210.1c0,39.4-27.7,69-66.6,69s-66.6-29.6-66.6-69s27.7-68.9,66.6-68.9S1784.4,170.8,1784.4,210.1z M1760.2,210.1
			c0-29.6-20.6-46.7-42.3-46.7s-42.3,17.2-42.3,46.7s20.6,46.8,42.3,46.8C1739.5,256.9,1760.2,239.8,1760.2,210.1L1760.2,210.1z"/>
		<path d="M1813.9,235.5v-68h-22.7v-22.1h22.7v-39.6h24.3v39.6h31.7v22.1h-31.7v66c0,14.4,6.1,21.1,17.4,21.1
			c3.8,0.2,7.6-0.5,11.1-2.1l8.4,20.9c-6.2,2.5-12.9,3.7-19.5,3.4C1828.3,276.9,1813.9,261.9,1813.9,235.5z"/>
		<path d="M2015.6,210.1c0,39.4-27.7,69-66.6,69c-38.8,0-66.6-29.6-66.6-69s27.7-68.9,66.6-68.9
			C1987.9,141.2,2015.6,170.8,2015.6,210.1z M1991.3,210.1c0-29.6-20.6-46.8-42.3-46.8c-21.6,0-42.3,17.2-42.3,46.8
			s20.6,46.8,42.3,46.8C1970.6,256.9,1991.4,239.8,1991.3,210.1L1991.3,210.1z"/>
		<path d="M2026.5,242.1l21.7-9c6.9,16.4,19.5,24.3,35.1,24.3c15.1,0,25.9-7.4,25.9-18.2c0-6.6-4-13.7-17.7-17.2l-26.2-6.3
			c-11.9-2.9-34.6-13.2-34.6-35.9c0-23.5,24.3-38.6,51.3-38.6c22.5,0,42,10.3,49.9,30.1l-21.1,8.7c-5-12.2-16.9-17.2-29.6-17.2
			c-13.7,0-25.6,6.2-25.6,16.6c0,8.3,6.9,12.7,17.2,15.1l25.6,6.1c25.6,6.1,35.7,21.9,35.7,37.8c0,23-20.6,40.7-51,40.7
			C2051.7,279.1,2034,260.6,2026.5,242.1z"/>
		<path d="M453.1,170.8c0-59.7,50.2-108.3,109.9-108.3c27.8-0.5,54.6,10.3,74.3,29.9l-20.9,20.9c-14.3-13.8-33.5-21.4-53.4-21.1
			c-43.6,0-77.7,35.1-77.7,78.7s34.1,78.7,77.7,78.7c28.3,0,44.4-11.4,54.7-21.7c8.5-8.4,14-20.6,16.1-37.2h-70.8V161h99.6
			c1.1,6.1,1.7,12.3,1.6,18.6c0,22.2-6.1,49.7-25.6,69.2c-19,19.8-43.3,30.4-75.6,30.4C503.2,279.1,453.1,230.5,453.1,170.8z"/>
		<path d="M744.7,139.6c-38.6,0-70,29.3-70,69.7s31.4,69.8,70,69.8c38.6,0,70-29.6,70-69.8S783.3,139.6,744.7,139.6z M744.7,251.6
			c-21.1,0-39.4-17.4-39.4-42.3s18.2-42.3,39.4-42.3s39.4,17.2,39.4,42.3S765.8,251.6,744.7,251.6z"/>
		<path d="M897.4,139.6c-38.6,0-70,29.3-70,69.7s31.4,69.8,70,69.8c38.6,0,70-29.6,70-69.8S936,139.6,897.4,139.6z M897.4,251.6
			c-21.1,0-39.4-17.4-39.4-42.3s18.2-42.3,39.4-42.3c21.1,0,39.4,17.2,39.4,42.3S918.6,251.6,897.4,251.6z"/>
		<path d="M1084.9,143.8v11.3h-1.1c-6.9-8.3-20.1-15.6-36.7-15.6c-34.9,0-66.9,30.7-66.9,70c0,39.4,32,69.5,66.9,69.5
			c16.6,0,29.8-7.4,36.7-15.9h1.1v10c0,26.7-14.3,41-37.3,41c-18.8,0-30.4-13.5-35.1-24.8l-26.7,11.1c10.3,25.1,34.7,41.4,61.8,41.3
			c35.9,0,66.3-21.1,66.3-72.7V143.8H1084.9z M1049.8,251.6c-21.1,0-38.8-17.7-38.8-42s17.7-42.5,38.8-42.5
			c21.1,0,37.2,18,37.2,42.5S1070.6,251.6,1049.8,251.6L1049.8,251.6z"/>
		<rect x="1135.1" y="69.8" width="30.7" height="205"/>
		<path d="M1249.8,251.6c-15.6,0-26.7-7.1-33.8-21.1l93.3-38.6l-3.1-7.9c-5.8-15.6-23.5-44.4-59.7-44.4s-65.8,28.3-65.8,69.7
			c0,39.1,29.6,69.8,69.2,69.8c23.4,0.1,45.2-11.5,58.1-31l-23.8-15.9C1276.2,243.9,1265.4,251.6,1249.8,251.6z M1247.4,166.5
			c12.2,0,22.5,6.1,25.9,14.8l-62.4,25.9C1210.1,180.3,1231.8,166.5,1247.4,166.5L1247.4,166.5z"/>
	</g>
	<g>
		<path class="st1" d="M87.5,79.5c48.3,0,87.5,39.2,87.5,87.5v7.9H7.9c-4.4,0-7.9-3.6-7.9-7.9C0,118.7,39.2,79.6,87.5,79.5
			C87.5,79.5,87.5,79.5,87.5,79.5z"/>
		<path class="st2" d="M270.5,87.5c0,48.3-39.2,87.5-87.5,87.5H175V7.9c0-4.4,3.6-7.9,7.9-7.9h0C231.3,0,270.5,39.2,270.5,87.5
			C270.5,87.5,270.5,87.5,270.5,87.5z"/>
		<path class="st3" d="M262.5,270.5c-48.3,0-87.5-39.2-87.5-87.5V175h167.1c4.4,0,7.9,3.6,7.9,7.9v0
			C350,231.3,310.9,270.5,262.5,270.5C262.5,270.5,262.5,270.5,262.5,270.5z"/>
		<path class="st4" d="M79.5,262.5c0-48.3,39.2-87.5,87.5-87.5c0,0,0,0,0,0h7.9v167.1c0,4.4-3.6,7.9-7.9,7.9
			C118.7,350,79.5,310.8,79.5,262.5z"/>
	</g>
</g>
</svg>
