<?xml version="1.0" encoding="UTF-8" ?>
<!DOCTYPE svg PUBLIC "-//W3C//DTD SVG 1.1//EN" "http://www.w3.org/Graphics/SVG/1.1/DTD/svg11.dtd">
<svg width="542pt" height="114pt" viewBox="0 0 542 114" version="1.1" xmlns="http://www.w3.org/2000/svg">
<g id="O00000ff">
<path fill="#000000" opacity="1.00" d=" M 268.97 2.60 C 271.48 2.33 274.59 1.23 276.70 3.14 C 277.08 5.74 276.92 8.38 276.94 11.00 C 276.87 44.33 276.99 77.66 276.88 110.99 C 274.30 111.86 271.60 111.90 268.99 111.15 C 269.01 105.64 269.02 100.13 268.98 94.62 C 262.76 102.88 253.94 109.33 243.83 111.82 C 231.46 114.87 217.68 112.26 207.59 104.37 C 200.86 99.61 195.94 92.60 192.92 84.99 C 188.25 72.56 189.58 57.94 196.78 46.73 C 202.76 37.53 212.09 30.29 222.90 27.84 C 234.27 25.26 246.85 26.78 256.67 33.30 C 261.50 36.27 265.37 40.48 269.01 44.77 C 268.96 30.71 269.05 16.65 268.97 2.60 M 225.42 35.59 C 208.49 39.36 195.97 56.97 198.60 74.21 C 200.14 86.21 208.38 96.65 219.05 102.01 C 228.08 105.55 238.83 106.24 247.59 101.54 C 262.01 95.78 270.94 79.19 268.02 63.99 C 266.32 53.44 259.50 43.86 250.03 38.89 C 242.64 34.67 233.66 33.86 225.42 35.59 Z" />
<path fill="#000000" opacity="1.00" d=" M 531.28 3.11 C 533.41 1.04 536.53 2.16 539.04 2.76 C 538.98 38.90 539.02 75.03 539.02 111.17 C 536.39 111.96 533.68 111.87 531.14 110.85 C 531.09 105.49 531.15 100.12 531.05 94.76 C 523.57 104.85 511.84 112.46 499.06 112.99 C 490.60 113.52 482.10 111.35 474.61 107.47 C 463.84 101.53 455.81 90.77 453.42 78.67 C 451.24 67.92 453.06 56.29 458.95 46.99 C 465.12 36.97 475.53 29.61 487.11 27.39 C 498.34 25.47 510.55 27.23 519.96 33.95 C 524.28 36.78 527.81 40.60 531.06 44.57 C 531.30 30.75 530.84 16.91 531.28 3.11 M 487.46 35.63 C 478.01 38.00 469.54 44.35 464.95 53.00 C 460.79 60.12 459.94 68.75 461.36 76.76 C 463.61 88.38 472.35 98.39 483.40 102.53 C 490.56 105.05 498.53 105.71 505.88 103.57 C 513.26 100.83 520.18 96.22 524.58 89.57 C 530.16 81.68 532.20 71.36 529.91 61.96 C 527.63 51.44 520.01 42.36 510.30 37.83 C 503.23 34.51 495.04 34.01 487.46 35.63 Z" />
<path fill="#000000" opacity="1.00" d=" M 432.40 3.40 C 436.69 2.07 441.01 7.62 438.38 11.40 C 436.67 14.57 431.80 15.27 429.55 12.30 C 426.76 9.46 428.53 4.18 432.40 3.40 Z" />
<path fill="#000000" opacity="1.00" d=" M 37.24 27.23 C 46.49 25.92 56.28 26.77 64.64 31.19 C 71.05 34.28 76.28 39.24 80.75 44.69 C 80.90 39.05 80.69 33.41 80.99 27.78 C 83.41 27.71 85.84 27.72 88.27 27.79 C 88.63 55.56 88.46 83.36 88.35 111.14 C 85.87 111.77 83.31 111.89 80.83 111.18 C 80.82 105.70 80.85 100.23 80.78 94.75 C 73.88 103.01 64.86 110.28 54.01 112.20 C 44.48 114.22 34.40 112.61 25.67 108.43 C 13.18 102.27 4.06 89.82 2.02 76.04 C 1.08 68.02 1.80 59.67 5.30 52.31 C 10.88 39.30 23.31 29.61 37.24 27.23 M 37.42 35.44 C 25.02 38.07 14.47 47.91 11.05 60.13 C 6.75 74.30 12.87 90.68 25.22 98.77 C 33.51 104.46 44.36 106.19 54.09 103.80 C 65.22 100.26 74.86 91.52 78.23 80.17 C 83.08 66.33 77.30 50.02 65.52 41.55 C 57.65 35.45 47.09 33.51 37.42 35.44 Z" />
<path fill="#000000" opacity="1.00" d=" M 118.25 35.22 C 131.70 23.78 153.37 23.76 166.83 35.19 C 175.69 42.36 181.09 53.61 181.02 65.02 C 180.97 80.37 181.03 95.72 180.99 111.07 C 178.36 111.90 175.63 111.86 173.00 111.09 C 172.94 95.05 173.13 78.99 172.91 62.95 C 172.14 47.36 157.62 34.02 141.99 34.76 C 126.33 34.60 112.45 48.41 112.09 63.99 C 111.88 79.71 112.05 95.43 112.01 111.15 C 109.38 111.82 106.67 111.90 104.05 111.12 C 104.03 96.08 104.08 81.04 104.03 65.99 C 103.79 54.29 109.12 42.58 118.25 35.22 Z" />
<path fill="#000000" opacity="1.00" d=" M 290.84 62.98 C 291.03 43.34 309.09 25.51 328.93 26.76 C 329.03 29.11 329.36 31.51 328.81 33.83 C 326.94 35.32 324.27 34.76 322.08 35.36 C 313.19 37.15 305.46 43.50 301.64 51.69 C 297.74 59.18 298.68 67.89 298.55 76.04 C 298.41 87.58 298.82 99.15 298.36 110.68 C 296.18 112.44 293.32 111.69 290.85 111.15 C 290.84 95.09 290.85 79.04 290.84 62.98 Z" />
<path fill="#000000" opacity="1.00" d=" M 362.40 27.45 C 372.62 25.65 383.63 26.83 392.68 32.15 C 403.66 38.34 411.65 49.54 413.88 61.95 C 414.99 70.10 414.62 78.69 411.27 86.31 C 405.39 100.54 391.49 111.22 376.13 112.83 C 365.85 113.89 355.15 111.30 346.70 105.30 C 337.36 99.06 330.99 88.91 328.77 77.96 C 326.45 67.52 328.92 56.41 334.28 47.28 C 340.41 37.21 350.79 29.72 362.40 27.45 M 363.46 35.54 C 346.31 39.18 333.68 57.15 336.51 74.52 C 337.83 83.44 342.54 91.79 349.72 97.29 C 357.89 104.41 369.75 106.29 380.09 103.79 C 386.46 101.58 392.74 98.40 397.25 93.23 C 403.42 86.49 406.82 77.24 406.39 68.10 C 405.80 56.10 398.66 44.60 387.99 38.98 C 380.65 34.69 371.69 33.87 363.46 35.54 Z" />
<path fill="#000000" opacity="1.00" d=" M 429.32 30.13 C 431.61 27.74 435.25 28.97 438.04 29.66 C 437.91 55.80 438.10 81.95 437.95 108.09 C 437.69 111.55 433.08 109.75 430.80 110.27 C 430.39 109.94 429.56 109.27 429.14 108.94 C 429.26 82.68 428.90 56.39 429.32 30.13 Z" />
</g>
</svg>
