<?xml version="1.0" encoding="utf-8"?>
<!-- Generator: Adobe Illustrator 23.0.1, SVG Export Plug-In . SVG Version: 6.00 Build 0)  -->
<!DOCTYPE svg PUBLIC "-//W3C//DTD SVG 1.1//EN" "http://www.w3.org/Graphics/SVG/1.1/DTD/svg11.dtd" [
	<!ENTITY ns_extend "http://ns.adobe.com/Extensibility/1.0/">
	<!ENTITY ns_ai "http://ns.adobe.com/AdobeIllustrator/10.0/">
	<!ENTITY ns_graphs "http://ns.adobe.com/Graphs/1.0/">
	<!ENTITY ns_vars "http://ns.adobe.com/Variables/1.0/">
	<!ENTITY ns_imrep "http://ns.adobe.com/ImageReplacement/1.0/">
	<!ENTITY ns_sfw "http://ns.adobe.com/SaveForWeb/1.0/">
	<!ENTITY ns_custom "http://ns.adobe.com/GenericCustomNamespace/1.0/">
	<!ENTITY ns_adobe_xpath "http://ns.adobe.com/XPath/1.0/">
]>
<svg version="1.1" id="Livello_1" xmlns:x="&ns_extend;" xmlns:i="&ns_ai;" xmlns:graph="&ns_graphs;"
	 xmlns="http://www.w3.org/2000/svg" xmlns:xlink="http://www.w3.org/1999/xlink" x="0px" y="0px" viewBox="0 0 999 996.6"
	 enable-background="new 0 0 999 996.6" xml:space="preserve">
<metadata>
	<sfw  xmlns="&ns_sfw;">
		<slices></slices>
		<sliceSourceBounds  bottomLeftOrigin="true" height="996.6" width="999" x="0" y="-1.1"></sliceSourceBounds>
	</sfw>
</metadata>
<g>
	<circle fill="#2C292A" cx="545.5" cy="543.1" r="453.6"/>
	<circle fill="#FAFAFA" cx="500.5" cy="498.1" r="453.6"/>
	<circle fill="#2C292A" cx="453.6" cy="453.6" r="453.6"/>
	<g>
		<g>
			<path fill="#413C3E" d="M647.2,339.1c-12.2,0-23.6,3.9-32.9,10.4l-0.1-8.2v-2.7h0c-0.3-25.4-6.7-50.6-18.4-72.9
				c-7.1-13.5-16.2-26-26.8-37.1l11.6-11.3c6.7-6.5,10.4-15.1,10.5-24.4c0.1-9.3-3.4-18.1-9.8-24.7c-6.5-6.7-15.1-10.4-24.4-10.5
				c-9.3-0.1-18.1,3.4-24.7,9.8l-22.8,22.2c-17.7-6.6-36.3-9.9-55.5-9.9c-19.1,0-37.7,3.3-55.3,9.8l-22.7-22.1
				c-6.7-6.5-15.4-9.9-24.7-9.8c-9.3,0.1-18,3.9-24.4,10.5s-10,15.4-9.8,24.7c0.1,9.3,3.9,18,10.5,24.4l11.5,11.2
				c-10.7,11-19.8,23.5-26.9,37.1c-11.8,22.4-18.2,47.6-18.5,73h-0.2v10.1c-9.1-6.1-20.1-9.6-31.8-9.6c-31.7,0-57.5,25.8-57.5,57.5
				v159c0,31.7,25.8,57.5,57.5,57.5c12.6,0,24.2-4.1,33.7-11c5.7,19.4,23.5,33.7,44.6,34V692c0,31.7,25.8,57.5,57.5,57.5
				c28.4,0,52.1-20.8,56.7-47.9c4.6,27.2,28.3,47.9,56.7,47.9c31.7,0,57.5-25.8,57.5-57.5v-55.9c21.2-0.5,39-15.1,44.4-34.7
				c9.6,7.3,21.7,11.7,34.7,11.7c31.7,0,57.5-25.8,57.5-57.5v-159C704.7,364.9,678.9,339.1,647.2,339.1z M294.9,555.6
				c0,18.5-15,33.5-33.5,33.5h0c-18.5,0-33.5-15-33.5-33.5v-159c0-18.5,15-33.5,33.5-33.5h0c18.5,0,33.5,15,33.5,33.5V555.6z
				 M374.2,229.4L344,200.1c-4.3-4.1-4.4-11-0.2-15.2c4.1-4.3,11-4.4,15.2-0.2l34.2,33.2c18.2-9.1,38.8-14.2,60.5-14.2
				c21.8,0,42.4,5.2,60.7,14.3l34.3-33.3c4.3-4.1,11.1-4,15.2,0.2c4.1,4.3,4,11.1-0.2,15.2l-30.3,29.4c34,24.7,56.3,64.8,56.7,110.1
				H317.4C317.8,294.2,340.1,254.1,374.2,229.4z M590.2,589c0,12.8-10.4,23.1-23.1,23.1h-22.9V692c0,18.5-15,33.5-33.5,33.5h0
				c-18.5,0-33.5-15-33.5-33.5v-79.9h-46.4V692c0,18.5-15,33.5-33.5,33.5h0c-18.5,0-33.5-15-33.5-33.5v-79.9h-23.4
				c-12.8,0-23.1-10.4-23.1-23.1V362.6h273V589z M680.7,555.6c0,18.5-15,33.5-33.5,33.5h0c-18.5,0-33.5-15-33.5-33.5v-159
				c0-18.5,15-33.5,33.5-33.5h0c18.5,0,33.5,15,33.5,33.5V555.6z"/>
			<circle fill="#413C3E" cx="510.6" cy="283.2" r="14.4"/>
			<circle fill="#413C3E" cx="397.2" cy="283.2" r="14.4"/>
		</g>
		<path fill="#413C3E" d="M450.4,839.5l0.3-34.4l11.7-0.3c11.5-0.3,11.8-0.2,12.2,2c0.8,3.9,4,64.8,3.4,65.3
			c-0.3,0.3-6.7,0.9-14.2,1.2l-13.6,0.6L450.4,839.5z"/>
		<path fill="#413C3E" d="M412.2,871.4c-5.8-0.5-10.8-1.3-11.3-1.7c-0.4-0.4,1.2-15.7,3.5-34l4.3-33.2l10,0.7
			c5.5,0.3,10.2,0.8,10.3,1c0.5,0.3-3.8,65.4-4.3,67.2c-0.3,0.6-0.8,1.1-1.2,1.1C423.1,872.4,418,871.9,412.2,871.4z"/>
		<path fill="#413C3E" d="M502.8,868.4c-1-4.6-7.7-65-7.3-65.4c0.9-0.9,19.2-3.3,19.8-2.6c0.7,0.7,11.9,62.6,11.9,65.3
			c0,1.1-2.3,1.8-9.2,2.8c-5.1,0.6-10.5,1.4-12,1.7C503.8,870.7,503.2,870.3,502.8,868.4z"/>
		<path fill="#413C3E" d="M361.8,863.2c-5.5-1.2-10.1-2.6-10.3-3.2c-0.4-1.1,15.1-64.1,15.9-65c0.3-0.2,4.8,0.6,10.1,1.8
			c7.3,1.6,9.7,2.5,9.7,3.7c0,0.9-2.7,15.8-6,33.1s-6,31.6-6,31.7C375.2,865.9,371.1,865.3,361.8,863.2z"/>
		<path fill="#413C3E" d="M543.9,829c-4.3-17.9-7.6-32.8-7.4-33c0.8-0.8,18.9-5.5,19.4-5.1c1,1.1,19.4,63,19,64.1
			c-0.4,1-19.5,6.6-22.3,6.6C552.1,861.6,548.2,846.9,543.9,829z"/>
		<path fill="#413C3E" d="M315,849.7c-6-2.1-11-4-11.3-4.3s4.9-14.7,11.6-32.1l12.1-31.5l9.6,3.3c5.4,1.8,9.7,3.7,9.6,4.1
			c-0.2,2.2-20,64.4-20.4,64.3C325.9,853.5,320.9,851.8,315,849.7z"/>
		<path fill="#413C3E" d="M588.1,816.4c-6.3-17.2-11.4-31.6-11.4-32.1s4.2-2.6,9.3-4.7l9.3-3.8l2,4.6c1.1,2.6,7.2,16.5,13.6,31
			c6.3,14.5,11.3,26.5,11.1,26.7c-0.4,0.4-21.7,9.5-22.2,9.5C599.6,847.6,594.4,833.5,588.1,816.4z"/>
		<path fill="#413C3E" d="M268.5,830.3c-5.7-2.8-10.3-5.6-10.3-6.1c0-1,29.8-57.7,30.9-58.7c0.3-0.3,4.7,1.3,9.8,3.7l9.2,4.4
			l-6.3,13.7c-3.4,7.6-9.8,21.6-14.1,31.1c-4.3,9.4-8.1,17.2-8.4,17.1C279,835.5,274.1,833.2,268.5,830.3z"/>
		<path fill="#413C3E" d="M629.7,798.4c-8.3-16.1-15.1-29.7-15.3-30.4c-0.2-0.6,3.6-3.3,8.4-5.9c7.1-3.9,8.8-4.5,9.8-3.4
			c1.8,2,33.9,57,33.4,57.4c-0.5,0.5-20.6,11.5-21,11.5C644.8,827.6,637.9,814.5,629.7,798.4z"/>
		<path fill="#413C3E" d="M225.6,806c-5.4-3.7-10-6.8-10.2-6.9c-0.4-0.3,33.1-49.2,36.6-53.5l1.9-2.3l7.8,4.9
			c4.3,2.7,8.2,5.2,8.7,5.5c0.7,0.5-27.2,47.9-33.7,57.1C235.7,812.4,234.6,811.9,225.6,806z"/>
		<path fill="#413C3E" d="M668.8,774.6c-10.2-15.4-18.6-28.3-18.5-28.7c0-0.5,3.7-3.3,8.1-6.5l8.1-5.6l7,9.1
			c22.5,29.4,33.7,44.9,33.2,45.7s-14.6,11.2-18.1,13.3C687.9,802.3,680.3,791.7,668.8,774.6z"/>
		<path fill="#413C3E" d="M187.3,777.9c-5-4.1-9.1-7.9-9.1-8.4c0-0.4,9.9-12.1,22.1-25.9c19.7-22.4,22.3-25,23.8-23.7
			c3,2.5,13.6,11.1,14,11.4c0.2,0.1-9.1,12.3-20.7,27.2l-20.9,27L187.3,777.9z"/>
		<path fill="#413C3E" d="M705.4,746.5l-22.2-26l6.1-5.7c3.4-3.1,6.9-6.2,7.8-6.8c1.3-0.9,5.4,2.8,24.5,22.5
			c12.6,13,23.1,24.1,23.3,24.7c0.2,0.6-3.6,4.8-8.5,9.2l-8.8,8.1L705.4,746.5z"/>
		<path fill="#413C3E" d="M150,743.2c-4.3-4.7-7.8-8.7-7.8-9c0-0.7,49-44.6,49.8-44.6c0.4,0,3.8,3.1,7.6,6.9l6.9,7l-23.2,23.8
			c-12.8,13.1-23.8,23.9-24.4,24.1C158.2,751.5,154.2,747.8,150,743.2z"/>
		<path fill="#413C3E" d="M738,713.8l-24.6-22.6l6.5-7.5c3.5-4.2,6.8-7.6,7.3-7.6c1.2,0,52,41.5,52,42.5c0,1.1-14.9,18-15.8,17.9
			C763,736.5,751.6,726.3,738,713.8z"/>
		<path fill="#413C3E" d="M117.5,705l-7.2-9.7l3.7-2.6c19.9-14.3,51.2-36.1,51.9-36.1c0.4,0,3.4,3.6,6.6,8l5.9,8.1l-2.4,1.8
			c-32.8,26.2-50.4,40.1-50.8,40.1C124.9,714.6,121.4,710.3,117.5,705z"/>
		<path fill="#413C3E" d="M768.2,680c-14-10.2-26.3-19.1-27.3-19.8c-1.6-1.2-1.3-1.9,3.6-9.2c2.9-4.3,5.6-8.1,6.1-8.3
			c0.6-0.3,46.3,27.9,56.9,35c0.9,0.6-12.1,20.9-13.3,20.9C793.9,698.5,782.2,690.2,768.2,680z"/>
		<path fill="#413C3E" d="M90,663.4c-3.2-5.7-5.4-10.6-5-11s13.7-7.7,29.7-16.3l29-15.7l1.5,2.3c0.8,1.2,3.2,5.3,5.3,9l3.7,6.8
			l-3.7,2.4c-29.4,18.2-53.2,32.7-53.9,32.7C96.1,673.6,93.1,669,90,663.4z"/>
		<path fill="#413C3E" d="M792.7,642.5c-14.8-8.3-28-15.7-29.2-16.5l-2.3-1.4l4.5-9.1c2.5-5,5-8.9,5.4-8.7c0.5,0.2,14.4,6.8,31,14.7
			l30,14.5l-5.6,10.8c-3.1,5.9-5.9,10.8-6.2,10.8C820,657.6,807.6,650.8,792.7,642.5z"/>
		<path fill="#413C3E" d="M70.9,625.9c-1.4-2.6-3.6-7.6-5-11.1l-2.6-6.3l2.2-0.8c1.2-0.5,14.8-5.9,30.2-12.1s28.7-11.5,29.5-11.7
			c1.1-0.3,2.6,2.1,5.4,8.7c2.1,5.1,3.5,9.5,3,9.9c-0.8,0.7-55.5,26.4-59.1,27.8C73.8,630.6,72.2,628.6,70.9,625.9z"/>
		<path fill="#413C3E" d="M810.2,600c-16.2-6.7-29.9-12.4-30.3-12.6c-1.2-0.5,6.5-19.9,7.7-19.5c0.6,0.2,15.1,5.3,32.3,11.2
			l31.2,10.7l-2.9,7.7c-4.6,12.5-5.8,15.1-7.2,15C840.3,612.4,826.4,606.8,810.2,600z"/>
		<path fill="#413C3E" d="M51.3,573.9c-1.7-6-3.1-11.3-3.1-12c0-1.4,0.3-1.5,37.4-11.3c14.8-3.9,27.2-6.8,27.6-6.3
			c0.6,0.7,1.7,4.1,5.6,17.5c0.4,1.4-4.2,3.2-29.8,11.6c-16.7,5.5-31.3,10.2-32.4,10.6C54.6,584.6,54.2,583.8,51.3,573.9z"/>
		<path fill="#413C3E" d="M825.4,556.6c-17.2-4.8-31.5-9-31.8-9.3c-0.8-0.7,3.8-19.7,4.7-19.7c1.6,0,65.1,13.9,65.6,14.3
			c0.8,0.9-5.1,23-6.2,23.3C857.2,565.3,842.6,561.5,825.4,556.6z"/>
		<path fill="#413C3E" d="M39.9,526.2c-0.9-5.7-1.7-11.2-1.7-12.3c0-1.7,3-2.3,33.1-6.6c18.2-2.7,33.3-4.6,33.6-4.3
			c0.3,0.3,1.3,4.9,2.3,10.2c1.1,6.6,1.3,9.7,0.6,9.9c-1,0.4-65.4,13.5-66,13.5C41.7,536.6,40.8,531.9,39.9,526.2z"/>
		<path fill="#413C3E" d="M833.8,511.5c-17-2.7-31.1-5.1-31.4-5.3c-0.6-0.6,0.9-18.2,1.7-19.4c0.6-0.9,66.4,4.7,67.4,5.8
			c0.3,0.3-0.1,5.2-0.9,11c-0.7,5.8-1.3,11.1-1.4,11.8C869.2,517.1,868.5,517,833.8,511.5z"/>
		<path fill="#413C3E" d="M34.9,485c-0.4-1.6-0.7-7.2-0.9-12.4l-0.3-9.5l18-0.6c9.9-0.4,25.3-0.7,34.3-0.8l16.2-0.1v4.4
			c0,2.3,0.3,7,0.6,10.2l0.6,6l-28.3,2.2c-15.6,1.3-30.9,2.6-34,2.9C35.5,487.9,35.4,487.8,34.9,485z"/>
		<path fill="#413C3E" d="M831.2,465.5c-9.6-0.3-19.4-0.7-21.7-0.8l-4.3-0.1v-10.4v-10.4l16.3-0.6c8.9-0.3,24.1-0.8,33.8-1.1
			l17.6-0.6l0.5,6.3c0.3,3.5,0.3,9.1,0,12.6l-0.5,6.2l-12.1-0.2C854.2,466.3,840.8,465.9,831.2,465.5z"/>
		<path fill="#413C3E" d="M58.7,438.6c-8.8-0.4-18-0.8-20.4-0.9l-4.4-0.1l0.6-12.2c0.4-6.7,0.8-12.3,1-12.4
			c0.2-0.2,15.3,1.1,33.7,2.9c38.4,3.7,34.6,2,33.5,15.4l-0.7,8.3l-13.6-0.2C80.8,439.3,67.5,438.9,58.7,438.6z"/>
		<path fill="#413C3E" d="M803.9,419.4c-0.4-1.8-0.9-6.5-1.3-10.3l-0.6-7l33.3-4.7c22.3-3.2,33.5-4.4,33.9-3.7
			c0.7,1.1,3.3,23,2.8,23.4c-0.3,0.2-64.3,5.5-66.4,5.5C804.9,422.6,804.2,421.1,803.9,419.4z"/>
		<path fill="#413C3E" d="M72.7,393.2c-17.6-2.9-32.5-5.4-33.1-5.7c-1.1-0.4,2.5-22.1,3.9-23.6c0.5-0.5,65.5,13.2,66.3,14
			c0.2,0.1-0.3,3.1-1.1,6.7c-0.7,3.6-1.6,8.2-1.9,10.3c-0.4,2-1,3.6-1.4,3.6C105,398.4,90.3,396,72.7,393.2z"/>
		<path fill="#413C3E" d="M797.7,379.4c-0.3-1.3-1.4-5.8-2.4-10l-1.8-7.8l4.1-1.1c47-12.8,61.8-16.5,62.2-15.5
			c0.7,1.8,5.4,23,5.1,23.2c-0.3,0.3-64.6,13.4-65.7,13.4C798.7,381.6,798,380.6,797.7,379.4z"/>
		<path fill="#413C3E" d="M80.7,347.6c-17.1-4.8-30.9-9.2-30.9-9.6c0.7-4.3,6.9-22.4,7.7-22.4c1,0,62.8,21,63.6,21.6
			c0.1,0.2-1.1,4.6-2.9,9.8c-2.3,7.1-3.6,9.6-4.8,9.5C112.5,356.5,97.8,352.5,80.7,347.6z"/>
		<path fill="#413C3E" d="M783.9,331.8c-2-5.3-3.5-9.7-3.4-9.8c0.1-0.1,14.3-5.8,31.5-12.7l31.3-12.6l1.6,3.7
			c4.9,11.8,7.2,19.3,6,19.7c-0.6,0.3-15.2,5.2-32.3,10.9l-31.2,10.4L783.9,331.8z"/>
		<path fill="#413C3E" d="M98.2,305.1c-16.2-6.8-30.1-12.7-30.8-13.2c-1.1-0.6-0.5-2.8,2.8-10.2c2.2-5.2,4.5-10.2,5-11.2
			c0.9-1.6,4.1-0.2,30.7,12.8c16.4,7.9,30.1,14.8,30.6,15.2c0.7,0.7-7.2,19.2-8.2,19C128,317.5,114.4,311.9,98.2,305.1z"/>
		<path fill="#413C3E" d="M767.1,293.7c-2.4-4.7-4.5-8.9-4.7-9.2c-0.1-0.3,13.1-7.9,29.4-16.9c27.9-15.4,29.8-16.2,31-14.5
			c2,2.8,10.6,19.6,10.2,20c-0.3,0.4-42.3,20.5-54.4,26l-7.1,3.3L767.1,293.7z"/>
		<path fill="#413C3E" d="M117,263.3c-20.7-11.7-28.6-16.6-28.2-17.6c0.2-0.8,3-5.7,6.1-10.8c5.3-8.9,5.6-9.3,7.7-8
			c28.2,17.8,54.6,35.2,54.6,35.9c0,1.7-9.5,16.7-10.5,16.7C146.2,279.5,132.8,272.2,117,263.3z"/>
		<path fill="#413C3E" d="M746.3,258c-3-4.7-5-8.9-4.5-9.3c2.9-2.6,53.4-38.1,54.2-38.1c1,0,13.2,18.1,13.2,19.5
			c0,0.9-54.3,35.5-56.6,36.1C752.1,266.4,749.3,262.7,746.3,258z"/>
		<path fill="#413C3E" d="M141.2,227.1c-14.5-10.7-26.6-19.8-26.8-20.3c-0.2-0.8,11.9-17.6,13.7-18.6c0.6-0.4,45.3,35,52.9,41.9
			c0.4,0.4-11.8,15.9-12.7,16.2C168,246.4,155.8,237.7,141.2,227.1z"/>
		<path fill="#413C3E" d="M721,224.5l-6.7-7.8l25.4-23l25.3-23l7.6,9.1c4.2,5.1,7.6,9.5,7.6,9.9c0,0.5-45.8,37.8-51.5,41.9
			C728.1,232.1,724.7,228.9,721,224.5z"/>
		<path fill="#413C3E" d="M170.7,191.2c-13.1-12.3-24-22.7-24.2-23.2s3.4-4.7,8-9.2l8.3-8.3l12,12.3c6.5,6.7,17.2,17.7,23.6,24.3
			l11.8,12.1l-7.3,7.2c-4,4-7.5,7.2-7.7,7.1C194.9,213.5,183.9,203.4,170.7,191.2z"/>
		<path fill="#413C3E" d="M691.8,194.1l-7.5-7l21.8-24.9c12-13.8,22.2-25.1,22.8-25.3c0.5-0.2,4.9,3.4,9.7,7.9l8.7,8.3l-24,24
			l-23.9,24L691.8,194.1z"/>
		<path fill="#413C3E" d="M204,159.4c-11.9-13.9-21.7-25.7-21.8-26.1c-0.1-0.5,4-4.2,9.1-8.3c7.5-5.9,9.6-7.2,10.6-6.2
			c0.6,0.7,9.9,13,20.6,27.2l19.4,25.9l-7.6,6.3c-4.2,3.5-7.8,6.4-8.2,6.4C225.8,184.6,215.9,173.2,204,159.4z"/>
		<path fill="#413C3E" d="M660.7,168.4c-3.8-2.7-7.6-5.5-8.3-6.2c-1.1-1,2.1-6.3,17.3-28.9c10.3-15.3,19.2-27.7,19.8-27.7
			c0.7,0,5.4,3.1,10.4,6.8l9.3,6.9l-20.6,26.9c-11.3,14.8-20.7,27-20.7,27C667.8,173.3,664.6,171.1,660.7,168.4z"/>
		<path fill="#413C3E" d="M240.6,131.7c-10.2-15.4-18.3-28.4-18-29c1.2-1.8,18.8-12.3,20-11.8c1,0.4,32.7,54.7,33.4,57.2
			c0.2,0.9-8,6.7-15.5,10.9C259.7,159.5,253,150.3,240.6,131.7z"/>
		<path fill="#413C3E" d="M625.7,146c-4.4-2.5-8.2-4.7-8.4-4.9c-0.3-0.3,28.4-55.7,30.7-59.3c0.7-1,3.3,0.1,11.2,4.5
			c5.6,3.2,10.3,6.2,10.3,6.7c0.1,1.5-33.8,57.5-34.8,57.5C634.2,150.5,630.1,148.5,625.7,146z"/>
		<path fill="#413C3E" d="M279.2,109c-8.5-16.7-15.2-30.5-14.9-30.8c1.4-1.5,21.5-10.3,22.1-9.7c1.2,1.1,26.8,60.5,26.5,61.4
			c-0.1,0.5-4.3,2.8-9.3,5.2l-8.9,4.1L279.2,109z"/>
		<path fill="#413C3E" d="M588,127.8c-4.9-1.9-8.8-4-8.8-4.5c0-1.9,23.3-62.7,24.1-62.7c1.9,0,22.4,8.9,22.2,9.6
			c-0.5,2.7-27.2,60.9-27.9,61C597.1,131.3,592.8,129.8,588,127.8z"/>
		<path fill="#413C3E" d="M333.2,122.2c0-0.1-5.2-14.4-11.5-31.6c-6.3-17.3-11.2-31.7-10.7-32.1c1.5-1.5,21.6-7.9,22.3-7.2
			c0.6,0.7,18.8,60.8,19.3,63.7c0,0.4-4.3,2.3-9.6,4.1C337.6,121,333.2,122.3,333.2,122.2z"/>
		<path fill="#413C3E" d="M548.3,114.1c-4.6-1.4-8.6-2.6-8.8-2.9c-0.9-0.9,15.4-65,16.6-65.4c2-0.7,23.2,6,22.8,7.2
			c-0.2,0.6-4.8,15.2-10.2,32.4c-5.4,17.1-10.3,31.2-10.9,31.1C557.2,116.5,552.9,115.4,548.3,114.1z"/>
		<path fill="#413C3E" d="M365.3,78.3c-4-17.7-7.4-32.6-7.5-33.1c-0.1-1,23-6.3,23.8-5.5c0.8,0.7,11.7,66.1,11.2,66.6
			s-17.1,4.2-19.1,4.3C373.2,110.6,369.4,96.1,365.3,78.3z"/>
		<path fill="#413C3E" d="M505.8,105c-4.3-0.7-7.9-1.4-8.1-1.6s8.1-67,8.4-67.4c0.1-0.1,2.7,0.3,5.9,0.7c12.9,1.9,18.2,3.2,18.2,4.3
			c0,1.2-8.9,49.6-11.1,60.4C517.9,107.3,518.5,107.2,505.8,105z"/>
		<path fill="#413C3E" d="M414.1,103.4c-0.3-1.3-7.7-67.3-7.5-67.5c0.4-0.5,23.8-2.4,24.2-2c0.2,0.2,1.1,13.1,1.9,28.8
			c0.8,15.6,1.6,30.7,1.8,33.6l0.4,5.2l-5.6,0.6c-3.1,0.3-7.7,0.8-10.3,1.1C416.3,103.5,414.2,103.6,414.1,103.4z"/>
		<path fill="#413C3E" d="M455.7,100.5c-0.4-0.6-0.4-16.2,0-34.6l0.8-33.5l11.6,0.7c6.4,0.4,11.9,1,12.2,1.4
			c0.3,0.3-0.4,15.5-1.5,33.6l-2.1,33l-10.2,0.3C459.8,101.6,456.1,101.3,455.7,100.5z"/>
	</g>
</g>
</svg>
