<?xml version="1.0" encoding="utf-8"?>
<!-- Generator: Adobe Illustrator 23.0.1, SVG Export Plug-In . SVG Version: 6.00 Build 0)  -->
<!DOCTYPE svg PUBLIC "-//W3C//DTD SVG 1.1//EN" "http://www.w3.org/Graphics/SVG/1.1/DTD/svg11.dtd" [
	<!ENTITY ns_extend "http://ns.adobe.com/Extensibility/1.0/">
	<!ENTITY ns_ai "http://ns.adobe.com/AdobeIllustrator/10.0/">
	<!ENTITY ns_graphs "http://ns.adobe.com/Graphs/1.0/">
	<!ENTITY ns_vars "http://ns.adobe.com/Variables/1.0/">
	<!ENTITY ns_imrep "http://ns.adobe.com/ImageReplacement/1.0/">
	<!ENTITY ns_sfw "http://ns.adobe.com/SaveForWeb/1.0/">
	<!ENTITY ns_custom "http://ns.adobe.com/GenericCustomNamespace/1.0/">
	<!ENTITY ns_adobe_xpath "http://ns.adobe.com/XPath/1.0/">
]>
<svg version="1.1" id="Livello_1" xmlns:x="&ns_extend;" xmlns:i="&ns_ai;" xmlns:graph="&ns_graphs;"
	 xmlns="http://www.w3.org/2000/svg" xmlns:xlink="http://www.w3.org/1999/xlink" x="0px" y="0px" viewBox="0 0 246.7 250"
	 enable-background="new 0 0 246.7 250" xml:space="preserve">
<metadata>
	<sfw  xmlns="&ns_sfw;">
		<slices></slices>
		<sliceSourceBounds  bottomLeftOrigin="true" height="250" width="246.7" x="-75.3" y="-77.5"></sliceSourceBounds>
	</sfw>
</metadata>
<path fill="#00832D" d="M130,50v60c0,3.7,3,6.7,6.7,6.7h60c0-18.4-4.1-38.4-16.2-50.5C168.4,54.1,148.4,50,130,50z"/>
<path fill="#00832D" d="M195.4,248.8c-28,4.6-61.9-3.7-94.4-23.1l10.9-24.3l24.7-11.4l38.7,22.1L195.4,248.8z"/>
<path fill="#00832D" d="M1.2,54.6c-4.6,28,3.6,61.9,23.1,94.4l25-11.7L60,113.3L39,79L1.2,54.6z"/>
<path fill="#34A853" d="M140,0c-5.5,0-10,4.5-10,10v40c36.8,0,66.7,29.9,66.7,66.7h40c5.5,0,10-4.5,10-10C246.7,47.8,198.9,0,140,0z
	"/>
<path fill="#34A853" d="M237.2,225.8c5.3-5.1,5.5-13.4,0.5-18.7l-48.2-51.4c-5.3-5-13.5-4.9-18.6,0.2L136.7,190l58.7,58.7
	c15.9-2.3,27.8-9.1,38.6-19.9L237.2,225.8z"/>
<path fill="#34A853" d="M24.4,149c8.8,14.6,20.5,29.3,33.8,42.6c13.3,13.3,28.3,25.2,42.9,34l35.7-35.6L60,113.3"/>
<path fill="#34A853" d="M85.7,88.4L85.7,88.4l5.5-5.3c6.5-6.5,6.5-17.2,0-23.7L45.9,14.1c-6.5-6.5-17.2-6.5-23.7,0l-1.6,1.1
	C10.1,25.7,3.8,39.3,1.2,54.6L60,113.3L85.7,88.4z"/>
</svg>
