<?xml version="1.0" encoding="utf-8"?>
<!-- Generator: Adobe Illustrator 23.0.1, SVG Export Plug-In . SVG Version: 6.00 Build 0)  -->
<svg version="1.1"
	 id="svg8" xmlns:cc="http://creativecommons.org/ns#" xmlns:dc="http://purl.org/dc/elements/1.1/" xmlns:inkscape="http://www.inkscape.org/namespaces/inkscape" xmlns:rdf="http://www.w3.org/1999/02/22-rdf-syntax-ns#" xmlns:sodipodi="http://sodipodi.sourceforge.net/DTD/sodipodi-0.dtd" xmlns:svg="http://www.w3.org/2000/svg"
	 xmlns="http://www.w3.org/2000/svg" xmlns:xlink="http://www.w3.org/1999/xlink" x="0px" y="0px" viewBox="0 0 401.9 250"
	 enable-background="new 0 0 401.9 250" xml:space="preserve">
<g>
	<path id="path10_1_" inkscape:connector-curvature="0" fill-rule="evenodd" clip-rule="evenodd" fill="#EC1C23" d="M401.9,0v250H0
		V0H401.9z"/>
	<g id="g67_1_" transform="translate(2.9479765,14.094413)">
		<path id="path12_1_" inkscape:connector-curvature="0" fill-rule="evenodd" clip-rule="evenodd" fill="#FFFFFF" d="M168.6,14
			C71.7,34.3,13.3,97.6,29.4,145.3c16.1,47.7,79.5,76.6,185.6,59.9c106.1-16.7,170-89,150.9-136.6C346.9,21,265.5-6.4,168.6,14z"/>
		<path id="path14_1_" inkscape:connector-curvature="0" fill-rule="evenodd" clip-rule="evenodd" fill="#EC1C23" d="M199.2,138.2
			c-2.7,4.8-7.1,8-12.9,8.7c-11.2,1.4-16.2-11.3-15.9-26.8c0.3-13.8,3.5-22.4,12.1-26.8c7.5-3.8,12.1-1,14.9,4.6l-1.1-25l14.3-2.7
			l1.1,71l-12.3,2.5L199.2,138.2z M190.2,100.7c1.6-0.7,5.8,0.1,6.3,4.5c0.4,4.3,0.7,14.5,0.9,22c0,0.3,0,0.6,0,0.8
			c-0.1,5.7-6.1,12.4-10.4,4.2c-0.1-0.2-0.3-0.4-0.4-0.7c-1.4-3.8-1.5-9-1.4-13.2C185.3,108,187.1,102.2,190.2,100.7L190.2,100.7z"
			/>
		<path id="path16_1_" inkscape:connector-curvature="0" fill-rule="evenodd" clip-rule="evenodd" fill="#EC1C23" d="M215.1,88.3
			l1.1,52.2l13.6-2c-0.2-5-0.7-18.2,0.1-28.5c0.6-7.3,4.5-12.6,11.4-11.7c-0.5,2.4-0.9,5-1,7.7c-0.9,15.8,8.2,28.2,21,27.6
			c12.8-0.7,20.6-11.8,21-27.6c0.4-15.7-8.6-28.5-21-27.7c-9.3,0.6-16,7-19.1,16.8l-0.4-12.4c-5.4-0.1-10.3,3-14,12.8l-0.6-9.4
			L215.1,88.3z M261.3,88.6c3.7,0,6.6,7.8,6.6,17.5c0,9.7-3,17.5-6.6,17.5c-3.7,0-6.6-7.8-6.6-17.5
			C254.6,96.5,257.6,88.6,261.3,88.6z"/>
		<path id="path18_1_" inkscape:connector-curvature="0" fill-rule="evenodd" clip-rule="evenodd" fill="#EC1C23" d="M284.4,75.7
			l14.4-2.8l1.1,52.5l-14.2,2L284.4,75.7z"/>
		<path id="path20_1_" inkscape:connector-curvature="0" fill-rule="evenodd" clip-rule="evenodd" fill="#EC1C23" d="M284,56.5
			l15.3-3.1l0.3,14.5l-15.1,3L284,56.5z"/>
		<path id="path22_1_" inkscape:connector-curvature="0" fill-rule="evenodd" clip-rule="evenodd" fill="#EC1C23" d="M176.5,19.4
			C84.9,37,23.1,96.6,35.8,143.3s89.6,70.3,180.9,53.5s157-75,143.1-122.9C345.8,25.9,268.1,1.8,176.5,19.4z M92.3,97.2
			c-0.8,3.2-9.9,48.8-9.9,48.8l20.8-4.5L92.3,97.2z M328.3,49.4l4.4-1c-30-24.9-88.2-34.5-153.3-22.2
			C93.6,42.3,31.9,95.2,44.2,140.3c2.2,8.2,6.6,15.6,12.7,22.2L79,69.7l27.7-5.3l23.1,77.9l-1.2-4.3l-0.3-33.9l11.8-2.7l0.6,7.5
			c7.1-14.7,25.1-14.8,26.8-0.3l0.8,40.4l-13.8,2.9l-1-35.9c-0.1-10-11.2-5.7-10.4,2l0.1,35.9l-9.6,1.7l8.5,28.7l-25.9,5.1
			l-7.7-26.9l-29.9,5.9l-2.2,9.3c32.3,18.1,84.2,23.9,140.4,13.4c85.1-16,148.2-69.1,135.2-114.1c-2-6.9-5.4-13.2-10.1-19l1.1,59.3
			l-11.9,2l-0.1-5.8c-2.4,6.3-7,9.8-13.7,9.8c-11.7-0.1-15-11.9-15.3-27.8s5.1-25.7,16.3-27.4c5.7-0.8,8.9,1.7,11,6.7L328.3,49.4z
			 M323.7,76.7c2.3,0,4.5,1.5,4.9,5.4c0.3,3,0.3,7,0.5,11.5c0.2,3.7,0.2,8.9-0.2,11.8c-0.7,5.4-2.8,6.1-5.2,6.4
			c-6,0.6-6.9-6.8-6.6-18.1C317.5,82.4,319.1,76.7,323.7,76.7L323.7,76.7z"/>
		
			<path id="path24_1_" inkscape:connector-curvature="0" opacity="0.45" fill-rule="evenodd" clip-rule="evenodd" fill="#FFFFFF" d="
			M92.2,69.4l-12,1.8l-21.1,89.4C59.2,160.6,92.2,69.8,92.2,69.4z M133.8,104.9l-4.2,0.9l0.4,25C130,130.8,133.6,105.1,133.8,104.9z
			 M142.3,108.2c3.8-3.5,8.3-6.6,12.7-8.7C148.5,98.8,143.4,105.4,142.3,108.2z M191.5,93.8c-8.9,3.9-15.3,11.3-19.8,21.5
			C172.6,104.5,178.8,92.4,191.5,93.8z M205.4,73.3l-7.2,1.6l0.2,33.8L205.4,73.3z M220.9,89l-4.7,0.9l0.6,25.3L220.9,89z
			 M231.7,91.5c0.9-3.2,2.7-5.4,5.9-5.8L231.7,91.5z M264.3,80.2c-10.8,4.1-18,11.5-22.5,21.2C244.2,89.8,251.3,79.9,264.3,80.2z
			 M285.7,77.1l4.7-1.6l-4.3,27.1L285.7,77.1z M285,58.3l4.4-1.3l-4.2,7.6L285,58.3z M303.5,91c4.1-9.7,10.4-16.5,19.1-20.4
			c-4.2-1.5-8.2,0-12.1,3.5C306.3,79,304.2,84.8,303.5,91z M329.3,50.6l0.7,34.5l7.2-35.4L329.3,50.6z"/>
	</g>
</g>
</svg>
