<?xml version="1.0" encoding="utf-8"?>
<!-- Generator: Adobe Illustrator 23.0.1, SVG Export Plug-In . SVG Version: 6.00 Build 0)  -->
<!DOCTYPE svg PUBLIC "-//W3C//DTD SVG 1.1//EN" "http://www.w3.org/Graphics/SVG/1.1/DTD/svg11.dtd" [
	<!ENTITY ns_extend "http://ns.adobe.com/Extensibility/1.0/">
	<!ENTITY ns_ai "http://ns.adobe.com/AdobeIllustrator/10.0/">
	<!ENTITY ns_graphs "http://ns.adobe.com/Graphs/1.0/">
	<!ENTITY ns_vars "http://ns.adobe.com/Variables/1.0/">
	<!ENTITY ns_imrep "http://ns.adobe.com/ImageReplacement/1.0/">
	<!ENTITY ns_sfw "http://ns.adobe.com/SaveForWeb/1.0/">
	<!ENTITY ns_custom "http://ns.adobe.com/GenericCustomNamespace/1.0/">
	<!ENTITY ns_adobe_xpath "http://ns.adobe.com/XPath/1.0/">
]>
<svg version="1.1"
	 id="svg8" xmlns:x="&ns_extend;" xmlns:i="&ns_ai;" xmlns:graph="&ns_graphs;" inkscape:version="0.92.4 (5da689c313, 2019-01-14)" sodipodi:docname="A10.svg" xmlns:cc="http://creativecommons.org/ns#" xmlns:dc="http://purl.org/dc/elements/1.1/" xmlns:inkscape="http://www.inkscape.org/namespaces/inkscape" xmlns:rdf="http://www.w3.org/1999/02/22-rdf-syntax-ns#" xmlns:sodipodi="http://sodipodi.sourceforge.net/DTD/sodipodi-0.dtd" xmlns:svg="http://www.w3.org/2000/svg"
	 xmlns="http://www.w3.org/2000/svg" xmlns:xlink="http://www.w3.org/1999/xlink" x="0px" y="0px" viewBox="0 0 2759.2 500"
	 enable-background="new 0 0 2759.2 500" xml:space="preserve">
<metadata  id="metadata5">
	<rdf:RDF>
		<cc:Work  rdf:about="">
			<dc:format>image/svg+xml</dc:format>
			<dc:type  rdf:resource="http://purl.org/dc/dcmitype/StillImage"></dc:type>
			<dc:title></dc:title>
		</cc:Work>
	</rdf:RDF>
	<sfw  xmlns="&ns_sfw;">
		<slices></slices>
		<sliceSourceBounds  bottomLeftOrigin="true" height="500" width="2759.2" x="-1806.4" y="96.7"></sliceSourceBounds>
	</sfw>
</metadata>
<g>
	<g>
		<path id="path847" inkscape:connector-curvature="0" sodipodi:nodetypes="ccccccccc" d="M2538,34.1V500h-71.9V105.4h-72.9V34.1
			H2538z"/>
		<path id="path847_1_" inkscape:connector-curvature="0" sodipodi:nodetypes="ccccccccc" d="M2759.2,34.1V500h-71.9V105.4h-72.9
			V34.1H2759.2z"/>
	</g>
	<g>
		<path d="M156.4,159.7c46.7,0,85.7,24,103.9,50v-43.5h71.4v324.5h-51.1c-11.2,0-20.3-9.1-20.3-20.3v-23.2
			c-18.2,26-57.1,50-103.9,50C67.5,497.2,0,421.3,0,328.4C0,235.6,67.5,159.7,156.4,159.7 M169.4,224.6
			c-57.8,0-96.7,45.4-96.7,103.9s38.9,103.9,96.7,103.9c57.8,0,96.7-45.5,96.7-103.9S227.2,224.6,169.4,224.6"/>
		<path d="M412.8,166.2h71.4v44.1c19.5-32.5,56.5-50.6,98.7-50.6c75.3,0,124,53.2,124,135.7v195.4h-51.1c-11.2,0-20.3-9.1-20.3-20.3
			V307c0-51.3-26-82.4-67.5-82.4c-47.4,0-83.7,37-83.7,106.4v159.7h-51.1c-11.2,0-20.3-9.1-20.3-20.3V166.2z"/>
		<path d="M919.8,159.7c46.7,0,85.7,24,103.9,50V3.9h71.4v486.8h-51.1c-11.2,0-20.3-9.1-20.3-20.3v-23.2c-18.2,26-57.1,50-103.9,50
			c-88.9,0-156.4-75.9-156.4-168.8C763.3,235.6,830.8,159.7,919.8,159.7 M932.8,224.6C875,224.6,836,270,836,328.4
			s39,103.9,96.7,103.9c57.8,0,96.7-45.5,96.7-103.9S990.5,224.6,932.8,224.6"/>
		<path d="M1176.1,166.2h71.4v57.8c12.3-37,48.7-61,85.7-61c9.1,0,18.2,0.7,27.9,2.6v73.4c-12.3-3.9-22.7-5.9-35.7-5.9
			c-40.9,0-77.9,34.4-77.9,99.3v158.4h-51.1c-11.2,0-20.3-9.1-20.3-20.3V166.2z"/>
		<path d="M1553.7,497.2c-96.1,0-170.1-74.7-170.1-168.7c0-94.1,74-168.8,170.1-168.8c96.1,0,170.1,74.7,170.1,168.8
			C1723.7,422.6,1649.7,497.2,1553.7,497.2 M1553.7,431c57.1,0,97.4-44.8,97.4-102.6c0-57.8-40.3-102.6-97.4-102.6
			c-57.8,0-98,44.8-98,102.6C1455.7,386.2,1495.9,431,1553.7,431"/>
		<path d="M1817.3,95.4c-26,0-48-21.4-48-48c0-26,22.1-47.4,48-47.4c26.6,0,47.4,21.4,47.4,47.4C1864.7,74,1843.9,95.4,1817.3,95.4
			 M1781.6,166.2h71.4v324.6h-51.1c-11.2,0-20.3-9.1-20.3-20.3V166.2z"/>
		<path d="M2068.1,159.7c46.7,0,85.7,24,103.9,50V3.9h71.4v486.8h-51.1c-11.2,0-20.3-9.1-20.3-20.3v-23.2c-18.2,26-57.1,50-103.9,50
			c-88.9,0-156.4-75.9-156.4-168.8C1911.7,235.6,1979.2,159.7,2068.1,159.7 M2081.1,224.6c-57.8,0-96.7,45.4-96.7,103.9
			s39,103.9,96.7,103.9c57.8,0,96.7-45.5,96.7-103.9S2138.9,224.6,2081.1,224.6"/>
	</g>
</g>
</svg>
