<?xml version="1.0" encoding="UTF-8" standalone="no"?>
<svg
     xmlns:dc="http://purl.org/dc/elements/1.1/"
     xmlns:cc="http://creativecommons.org/ns#"
     xmlns:rdf="http://www.w3.org/1999/02/22-rdf-syntax-ns#"
     xmlns:svg="http://www.w3.org/2000/svg"
     xmlns="http://www.w3.org/2000/svg"
     version="1.1"
     id="svg52395"
     viewBox="0 0 1000 222.64156"
     height="222.64156"
     width="1000">
    <defs
         id="defs52397" />
    <metadata
         id="metadata52400">
        <rdf:RDF>
            <cc:Work
                 rdf:about="">
                <dc:format>image/svg+xml</dc:format>
                <dc:type
                     rdf:resource="http://purl.org/dc/dcmitype/StillImage" />
                <dc:title></dc:title>
            </cc:Work>
        </rdf:RDF>
    </metadata>
    <g
         transform="translate(-282.22393,-311.26514)"
         id="layer1">
        <g
             transform="matrix(21.016504,0,0,-21.016504,367.57882,493.02273)"
             id="g34479">
            <path
                 id="path34481"
                 style="fill:#77c159;fill-opacity:1;fill-rule:nonzero;stroke:none"
                 d="m 0,0 c -1.121,0 -2.028,0.937 -2.028,2.102 0,1.143 0.907,2.094 2.028,2.094 0.745,0 1.49,-0.347 1.807,-0.981 C 1.829,3.171 1.858,3.112 1.858,3.038 l 0,-1.858 C 1.858,1.143 1.836,1.062 1.821,1.04 1.475,0.406 0.767,0 0,0 m 3.68,-1.6 0,7.374 -1.822,0 0,-0.619 c -0.509,0.494 -1.202,0.766 -2.057,0.766 -2.087,0 -3.672,-1.696 -3.672,-3.819 0,-2.132 1.585,-3.85 3.672,-3.85 0.855,0 1.548,0.288 2.057,0.782 l 0,-0.634 1.822,0 z m 7.912,0 0,3.989 c 0,1.962 -1.526,3.532 -3.473,3.532 -1.954,0 -3.473,-1.57 -3.473,-3.532 l 0,-3.989 1.821,0 0,3.989 c 0,0.966 0.679,1.704 1.652,1.704 0.966,0 1.652,-0.738 1.652,-1.704 l 0,-3.989 1.821,0 z M 16.223,0 c -1.121,0 -2.028,0.937 -2.028,2.102 0,1.143 0.907,2.094 2.028,2.094 0.745,0 1.453,-0.369 1.807,-0.981 0.022,-0.044 0.051,-0.103 0.051,-0.177 l 0,-1.866 C 18.081,1.135 18.059,1.062 18.045,1.04 17.698,0.406 16.99,0 16.223,0 m 3.68,-1.6 0,9.586 -1.822,0 0,-2.831 c -0.508,0.494 -1.202,0.789 -2.057,0.789 -2.087,0 -3.672,-1.719 -3.672,-3.842 0,-2.132 1.585,-3.85 3.672,-3.85 0.855,0 1.549,0.288 2.057,0.782 l 0,-0.634 1.822,0 z m 2.787,0 0,3.938 c 0,1.165 0.612,1.784 1.777,1.784 l 0,1.799 c -2.345,0 -3.598,-1.246 -3.598,-3.583 l 0,-3.938 1.821,0 z m 5.759,1.688 c -1.106,0 -2.005,0.9 -2.005,2.014 0,1.106 0.899,2.005 2.005,2.005 1.121,0 2.014,-0.899 2.014,-2.005 0,-1.114 -0.893,-2.014 -2.014,-2.014 m 0,-1.836 c 2.132,0 3.857,1.718 3.857,3.85 0,2.123 -1.725,3.819 -3.857,3.819 -2.123,0 -3.849,-1.696 -3.849,-3.819 0,-2.132 1.726,-3.85 3.849,-3.85 m 5.597,8.082 c 0.583,0 1.055,0.48 1.055,1.062 0,0.59 -0.472,1.062 -1.055,1.062 -0.582,0 -1.054,-0.472 -1.054,-1.062 0,-0.582 0.472,-1.062 1.054,-1.062 m 0.907,-0.56 -1.822,0 0,-7.374 1.822,0 0,7.374 z M 39.651,0 c -1.121,0 -2.028,0.937 -2.028,2.102 0,1.143 0.907,2.094 2.028,2.094 0.745,0 1.452,-0.369 1.806,-0.981 0.023,-0.044 0.052,-0.103 0.052,-0.177 l 0,-1.873 C 41.509,1.128 41.487,1.062 41.472,1.04 41.126,0.406 40.418,0 39.651,0 m 3.679,-1.6 0,9.586 -1.821,0 0,-2.831 C 41,5.649 40.307,5.921 39.452,5.921 c -2.087,0 -3.673,-1.696 -3.673,-3.819 0,-2.132 1.586,-3.857 3.673,-3.857 0.855,0 1.548,0.295 2.057,0.789 l 0,-0.634 1.821,0 z" />
        </g>
    </g>
</svg>
