<svg id="Layer_1" data-name="Layer 1" xmlns="http://www.w3.org/2000/svg" viewBox="0 0 70 94"><defs><style>.cls-1{fill:#703db4;}.cls-2{fill:#532b86;}.cls-3{fill:#fff;}</style></defs><path class="cls-1" d="M61,91H9a6,6,0,0,1-6-6V9A6,6,0,0,1,9,3H45L67,25V85A6,6,0,0,1,61,91Z"/><path class="cls-2" d="M45,3,67,25H45Z"/><path class="cls-3" d="M53,42H27V37H53Zm0,7H27v5H53Zm0,12H27v5H53ZM19.5,37A2.5,2.5,0,1,0,22,39.5,2.5,2.5,0,0,0,19.5,37Zm0,12A2.5,2.5,0,1,0,22,51.5,2.5,2.5,0,0,0,19.5,49Zm0,12A2.5,2.5,0,1,0,22,63.5,2.5,2.5,0,0,0,19.5,61Z"/></svg>