<?xml version="1.0" encoding="UTF-8" standalone="no"?>
<svg
	xmlns="http://www.w3.org/2000/svg"
	width="445px"
	height="60px"
	id="svg2"
	version="1.0">
	<g stroke="#0268aa" fill="none" stroke-width="12" stroke-linecap="square">
		<path d="M 30,54 a 24,24 0,0,1 0,-48 h 24 v 48" />
		<path d="M 78,54 v -24 a 24,24 0,0,1 48,0 v 24" />
		<path d="M 150,54 h 24 a 24,24 0,0,0 0,-48 h -24" />
		<path d="M 270,54 a 18,18 0,0,0 -18,-18 m -30,0 h 33 a 15,15 0,0,0 0,-30 h -33" />
		<circle r="24" cx="318" cy="30" />
		<path d="M 366,54 v -48" />
		<path d="M 390,54 h 24 a 24,24 0,0,0 0,-48 h -24" />
	</g>
</svg>
